<svg width="355" height="355" viewBox="0 0 355 355" fill="none" xmlns="http://www.w3.org/2000/svg">
<path d="M301.04 124.25L299.726 121.481C288.601 98.0936 265.788 82.3529 240.15 81.366C236.85 81.2405 233.544 81.3567 230.26 81.7139C206.56 84.3338 184.6 99.7976 173.95 121.41C167.695 134.105 164.77 149.157 154.382 158.678C140.892 171.067 120.21 169.399 102.155 166.992C84.0995 164.585 63.4669 162.931 49.9911 175.37C41.5563 183.18 37.9211 195.115 37.3531 206.653C35.8692 237.183 54.2795 266.527 79.8253 282.772C105.371 299.017 136.959 303.461 167.035 300.522C209.166 296.411 250.751 277.553 277.944 244.659C305.137 211.765 316.014 164.294 301.04 124.25Z" fill="#F5F5F5"/>
<path d="M319.571 333.835C319.571 333.941 253.733 334.02 172.537 334.02C91.3415 334.02 25.489 333.941 25.489 333.835C25.489 333.728 91.3131 333.65 172.537 333.65C253.761 333.65 319.571 333.736 319.571 333.835Z" fill="#263238"/>
<path d="M331.854 272.64C331.854 272.739 323.49 272.825 313.167 272.825C302.843 272.825 294.48 272.739 294.48 272.64C294.48 272.541 302.843 272.455 313.167 272.455C323.49 272.455 331.854 272.569 331.854 272.64Z" fill="#263238"/>
<path d="M338.89 277.844C338.89 277.944 330.519 278.029 320.203 278.029C309.887 278.029 301.516 277.944 301.516 277.844C301.516 277.745 309.88 277.66 320.203 277.66C330.526 277.66 338.89 277.738 338.89 277.844Z" fill="#263238"/>
<path d="M257.219 190.99C257.219 191.096 250.396 191.182 241.975 191.182C233.555 191.182 226.731 191.096 226.731 190.99C226.731 190.883 233.555 190.805 241.975 190.805C250.396 190.805 257.219 190.898 257.219 190.99Z" fill="#263238"/>
<path d="M262.956 195.122C262.956 195.229 256.125 195.307 247.712 195.307C239.298 195.307 232.468 195.229 232.468 195.122C232.468 195.016 239.291 194.938 247.712 194.938C256.133 194.938 262.956 195.023 262.956 195.122Z" fill="#263238"/>
<path d="M147.51 147.559L141.893 147.815C140.084 149.973 137.709 151.583 135.035 152.465C133.146 153.081 131.153 153.312 129.174 153.143C127.195 152.974 125.27 152.409 123.513 151.482C121.756 150.555 120.203 149.285 118.947 147.746C117.69 146.207 116.756 144.432 116.199 142.525C114.994 138.64 115.353 134.438 117.198 130.813C119.044 127.188 122.231 124.426 126.082 123.114C127.97 122.497 129.963 122.266 131.943 122.434C133.923 122.603 135.848 123.167 137.605 124.094C139.362 125.022 140.915 126.292 142.171 127.832C143.428 129.371 144.362 131.147 144.918 133.054C145.905 136.309 145.81 139.797 144.648 142.994L147.51 147.559Z" fill="white"/>
<path d="M147.51 147.559L147.304 147.261L146.743 146.388L144.613 143.058H144.726C144.72 143.064 144.713 143.069 144.705 143.072C144.697 143.076 144.689 143.078 144.68 143.078C144.672 143.078 144.663 143.076 144.655 143.072C144.647 143.069 144.64 143.064 144.634 143.058C144.624 143.047 144.619 143.033 144.619 143.019C144.619 143.004 144.624 142.99 144.634 142.98C145.491 140.572 145.752 137.992 145.394 135.461C144.895 131.994 143.232 128.799 140.679 126.401C139.138 124.968 137.305 123.884 135.307 123.222C133.309 122.561 131.192 122.337 129.099 122.567C125.591 123.013 122.347 124.661 119.919 127.232C119.1 128.133 118.385 129.124 117.789 130.186C116.569 132.271 115.863 134.617 115.73 137.03C115.6 139.322 115.976 141.615 116.83 143.747C117.605 145.687 118.781 147.442 120.281 148.897C121.781 150.352 123.572 151.474 125.535 152.189C128.815 153.376 132.411 153.351 135.674 152.117C138.072 151.209 140.2 149.707 141.858 147.751C141.874 147.746 141.892 147.746 141.908 147.751L146.068 147.609H147.147H147.531H147.183L146.118 147.673L141.915 147.907H141.964C140.311 149.906 138.172 151.446 135.752 152.38C132.442 153.655 128.784 153.701 125.443 152.508C123.44 151.785 121.612 150.647 120.079 149.169C118.546 147.691 117.342 145.906 116.546 143.931C115.672 141.756 115.286 139.414 115.418 137.073C115.489 135.871 115.689 134.681 116.014 133.523C116.729 131.144 117.974 128.96 119.656 127.133C120.496 126.245 121.437 125.458 122.461 124.79C124.44 123.49 126.692 122.666 129.042 122.383C131.256 122.138 133.497 122.397 135.596 123.142C137.543 123.826 139.327 124.907 140.836 126.316C142.204 127.598 143.323 129.122 144.137 130.81C144.859 132.304 145.338 133.902 145.557 135.546C145.898 138.107 145.608 140.713 144.712 143.136L144.591 143.072C144.597 143.066 144.605 143.061 144.613 143.058C144.621 143.055 144.629 143.052 144.638 143.052C144.646 143.052 144.655 143.054 144.663 143.058C144.671 143.061 144.678 143.066 144.684 143.072C145.6 144.556 146.303 145.706 146.814 146.494L147.339 147.36C147.46 147.467 147.51 147.559 147.51 147.559Z" fill="#263238"/>
<path d="M136.043 136C135.888 135.318 135.498 134.711 134.941 134.285C134.385 133.86 133.697 133.643 132.997 133.672C132.589 133.738 132.198 133.887 131.849 134.109C131.5 134.331 131.2 134.622 130.967 134.964C130.791 135.187 130.635 135.425 130.498 135.674C130.349 135.426 130.183 135.188 130.001 134.964C129.751 134.633 129.436 134.357 129.076 134.15C128.716 133.944 128.318 133.813 127.906 133.764C127.201 133.764 126.518 134.013 125.979 134.468C125.44 134.923 125.079 135.554 124.96 136.249C124.858 136.942 124.906 137.648 125.101 138.321C125.296 138.993 125.633 139.616 126.089 140.147C127.234 141.677 128.897 142.737 130.768 143.129C132.323 142.738 134.261 141.077 135.07 139.941C135.506 139.393 135.819 138.757 135.987 138.077C136.155 137.397 136.174 136.689 136.043 136Z" fill="#7F01D8"/>
<path d="M166.701 166.935L157.301 175.597L137.91 186.787L137.158 186.957L137.91 193.063L160.758 185.26L174.404 174.916L166.701 166.935Z" fill="#FAE2C0"/>
<path d="M242.33 287.919C242.245 287.919 244.765 279.2 247.946 268.508C251.127 257.815 253.782 249.146 253.868 249.175C253.953 249.203 251.432 257.893 248.244 268.593C245.057 279.293 242.408 287.948 242.33 287.919Z" fill="#263238"/>
<path d="M242.33 287.919C242.245 287.919 243.303 278.923 244.687 267.847C246.072 256.771 247.272 247.79 247.357 247.79C247.442 247.79 246.37 256.807 244.993 267.883C243.615 278.959 242.415 287.933 242.33 287.919Z" fill="#263238"/>
<path d="M242.33 287.919C242.245 287.919 241.691 278.888 241.095 267.741C240.498 256.594 240.086 247.556 240.172 247.549C240.257 247.542 240.811 256.58 241.407 267.727C242.003 278.874 242.415 287.919 242.33 287.919Z" fill="#263238"/>
<path d="M242.33 287.919C242.245 287.919 240.2 279.122 237.736 268.238C235.273 257.354 233.37 248.493 233.476 248.479C233.583 248.465 235.606 257.276 238.07 268.167C240.534 279.058 242.408 287.905 242.33 287.919Z" fill="#263238"/>
<path d="M242.33 287.919C242.252 287.955 238.745 279.605 234.52 269.282C230.296 258.958 226.909 250.552 226.987 250.516C227.065 250.481 230.537 258.831 234.797 269.161C239.057 279.492 242.408 287.891 242.33 287.919Z" fill="#263238"/>
<path d="M242.33 287.919C242.252 287.969 237.41 280.322 231.503 270.879C225.595 261.436 220.853 253.69 220.938 253.64C221.023 253.591 225.858 261.237 231.765 270.716C237.672 280.194 242.401 287.877 242.33 287.919Z" fill="#263238"/>
<path d="M242.33 287.919C242.266 287.976 236.203 281.252 228.797 272.903C221.392 264.553 215.435 257.73 215.499 257.673C215.563 257.616 221.619 264.34 229.032 272.697C236.444 281.054 242.394 287.862 242.33 287.919Z" fill="#263238"/>
<path d="M242.33 287.919C242.273 287.99 235.173 282.367 226.476 275.374C217.778 268.38 210.763 262.657 210.82 262.594C210.877 262.53 217.97 268.146 226.667 275.139C235.365 282.133 242.38 287.855 242.33 287.919Z" fill="#263238"/>
<path d="M242.33 287.919C242.287 287.997 234.35 283.659 224.58 278.206C214.81 272.754 206.958 268.266 207 268.217C207.043 268.167 214.981 272.477 224.75 277.937C234.52 283.396 242.366 287.848 242.33 287.919Z" fill="#263238"/>
<path d="M242.33 287.919C242.33 288.004 233.746 285.037 223.224 281.309C212.702 277.582 204.196 274.479 204.224 274.401C204.253 274.323 212.808 277.241 223.331 281.018C233.853 284.795 242.359 287.841 242.33 287.919Z" fill="#263238"/>
<path d="M242.33 287.919C242.33 288.004 233.384 286.499 222.386 284.596C211.388 282.694 202.506 281.046 202.506 280.961C202.506 280.876 211.445 282.381 222.45 284.291C233.455 286.201 242.344 287.841 242.33 287.919Z" fill="#263238"/>
<path d="M242.33 287.919C242.33 288.004 233.278 288.033 222.109 287.976C210.941 287.919 201.896 287.806 201.896 287.72C201.896 287.635 210.948 287.614 222.116 287.671C233.285 287.728 242.33 287.834 242.33 287.919Z" fill="#263238"/>
<path d="M242.33 287.919C242.33 288.004 233.42 289.545 222.408 291.356C211.395 293.166 202.449 294.572 202.435 294.487C202.421 294.401 211.339 292.868 222.358 291.05C233.377 289.233 242.316 287.841 242.33 287.919Z" fill="#263238"/>
<path d="M242.33 287.919C242.33 288.004 233.81 291.008 223.259 294.643C212.709 298.278 204.089 301.146 204.089 301.068C204.089 300.99 212.609 297.98 223.153 294.352C233.696 290.724 242.302 287.841 242.33 287.919Z" fill="#263238"/>
<path d="M242.33 287.919C242.366 287.997 234.456 292.392 224.651 297.739C214.846 303.085 206.901 307.352 206.83 307.281C206.759 307.21 214.704 302.808 224.509 297.462C234.314 292.115 242.287 287.848 242.33 287.919Z" fill="#263238"/>
<path d="M242.33 287.919C242.38 287.99 235.315 293.642 226.547 300.55C217.778 307.458 210.621 313.011 210.572 312.947C210.522 312.883 217.58 307.224 226.355 300.309C235.131 293.393 242.273 287.855 242.33 287.919Z" fill="#263238"/>
<path d="M242.33 287.919C242.394 287.976 236.366 294.735 228.883 303.014C221.399 311.292 215.265 317.959 215.201 317.924C215.137 317.888 221.158 311.108 228.648 302.829C236.139 294.551 242.266 287.862 242.33 287.919Z" fill="#263238"/>
<path d="M242.33 287.919C242.401 287.969 237.594 295.637 231.595 305.052C225.595 314.466 220.668 322.091 220.597 322.02C220.526 321.949 225.333 314.303 231.332 304.888C237.332 295.474 242.252 287.877 242.33 287.919Z" fill="#263238"/>
<path d="M242.33 287.919C242.408 287.955 238.95 296.319 234.612 306.606C230.274 316.894 226.689 325.18 226.611 325.18C226.533 325.18 229.983 316.781 234.328 306.493C238.674 296.205 242.252 287.891 242.33 287.919Z" fill="#263238"/>
<path d="M242.33 287.919C242.408 287.919 240.406 296.766 237.843 307.636C235.28 318.506 233.143 327.31 233.065 327.31C232.986 327.31 234.982 318.47 237.545 307.6C240.108 296.73 242.245 287.905 242.33 287.919Z" fill="#263238"/>
<path d="M242.33 287.919C242.415 287.919 241.911 296.965 241.208 308.105C240.505 319.244 239.859 328.276 239.788 328.269C239.717 328.261 240.207 319.23 240.91 308.083C241.613 296.936 242.245 287.919 242.33 287.919Z" fill="#263238"/>
<path d="M242.33 287.919C242.415 287.919 243.431 296.908 244.595 308.012C245.759 319.117 246.647 328.119 246.562 328.134C246.476 328.148 245.461 319.145 244.29 308.041C243.118 296.936 242.245 287.933 242.33 287.919Z" fill="#263238"/>
<path d="M242.33 287.919C242.408 287.919 244.915 296.595 247.925 307.345C250.935 318.094 253.307 326.834 253.229 326.856C253.151 326.877 250.63 318.179 247.627 307.43C244.623 296.681 242.245 287.948 242.33 287.919Z" fill="#263238"/>
<path d="M242.33 287.919C242.401 287.919 246.327 296.042 251.099 306.138C255.87 316.234 259.661 324.47 259.583 324.47C259.505 324.47 255.586 316.355 250.815 306.251C246.043 296.148 242.252 287.962 242.33 287.919Z" fill="#263238"/>
<path d="M242.33 287.919C242.394 287.877 247.634 295.261 254.017 304.413C260.4 313.564 265.526 321.034 265.455 321.083C265.384 321.133 260.151 313.749 253.768 304.59C247.385 295.431 242.259 287.969 242.33 287.919Z" fill="#263238"/>
<path d="M242.33 287.919C242.387 287.862 248.784 294.267 256.615 302.226C264.447 310.185 270.737 316.688 270.68 316.745C270.624 316.802 264.226 310.405 256.395 302.439C248.564 294.473 242.266 287.983 242.33 287.919Z" fill="#263238"/>
<path d="M242.33 287.919C242.38 287.855 249.757 293.095 258.802 299.634C267.847 306.173 275.132 311.527 275.132 311.598C275.132 311.669 267.705 306.422 258.653 299.883C249.6 293.344 242.28 287.99 242.33 287.919Z" fill="#263238"/>
<path d="M242.33 287.919C242.366 287.848 250.516 291.782 260.527 296.716C270.538 301.651 278.64 305.705 278.597 305.783C278.554 305.861 270.411 301.92 260.393 296.993C250.374 292.066 242.288 287.997 242.33 287.919Z" fill="#263238"/>
<path d="M242.33 287.919C242.33 287.841 251.049 290.355 261.742 293.542C272.434 296.73 281.103 299.379 281.075 299.464C281.046 299.549 272.356 297.028 261.656 293.841C250.957 290.653 242.302 288.004 242.33 287.919Z" fill="#263238"/>
<path d="M242.33 287.919C242.33 287.834 251.333 288.864 262.409 290.22C273.485 291.576 282.473 292.733 282.459 292.818C282.445 292.903 273.457 291.874 262.373 290.525C251.29 289.176 242.316 288.004 242.33 287.919Z" fill="#263238"/>
<path d="M242.33 287.919C242.33 287.834 251.361 287.344 262.515 286.826C273.669 286.308 282.708 285.953 282.715 286.038C282.722 286.123 273.684 286.613 262.53 287.131C251.375 287.649 242.33 288.004 242.33 287.919Z" fill="#263238"/>
<path d="M242.33 287.919C242.33 287.841 251.141 285.846 262.047 283.46C272.952 281.075 281.813 279.2 281.827 279.307C281.842 279.413 273.023 281.387 262.111 283.766C251.198 286.144 242.344 288.004 242.33 287.919Z" fill="#263238"/>
<path d="M242.33 287.919C242.295 287.841 250.665 284.369 261.024 280.23C271.383 276.091 279.797 272.739 279.832 272.818C279.868 272.896 271.497 276.367 261.138 280.514C250.779 284.66 242.358 288.004 242.33 287.919Z" fill="#263238"/>
<path d="M242.33 287.919C242.28 287.848 249.963 283.056 259.469 277.212C268.976 271.369 276.737 266.69 276.779 266.761C276.822 266.832 269.147 271.625 259.633 277.475C250.119 283.326 242.373 287.997 242.33 287.919Z" fill="#263238"/>
<path d="M242.33 287.919C242.273 287.855 249.04 281.842 257.439 274.493C265.838 267.145 272.697 261.23 272.754 261.294C272.81 261.358 266.044 267.372 257.638 274.727C249.231 282.083 242.387 287.983 242.33 287.919Z" fill="#263238"/>
<path d="M242.33 287.919C242.259 287.869 247.925 280.819 254.975 272.157C262.026 263.495 267.805 256.537 267.869 256.58C267.933 256.622 262.274 263.68 255.217 272.349C248.159 281.018 242.394 287.976 242.33 287.919Z" fill="#263238"/>
<path d="M242.33 287.919C242.252 287.877 246.654 279.974 252.164 270.261C257.673 260.549 262.196 252.71 262.267 252.753C262.338 252.795 257.936 260.698 252.433 270.411C246.931 280.123 242.401 287.962 242.33 287.919Z" fill="#263238"/>
<path d="M93.6419 287.919C93.5567 287.919 96.0772 279.2 99.2651 268.508C102.453 257.815 105.08 249.146 105.179 249.21C105.279 249.274 102.744 257.929 99.5562 268.629C96.3683 279.328 93.72 287.948 93.6419 287.919Z" fill="#263238"/>
<path d="M93.6419 287.919C93.5567 287.919 94.6146 278.923 96.0062 267.847C97.3978 256.771 98.5906 247.79 98.69 247.79C98.7894 247.79 97.7173 256.793 96.3257 267.869C94.9341 278.945 93.72 287.933 93.6419 287.919Z" fill="#263238"/>
<path d="M93.6419 287.919C93.5567 287.919 93.0029 278.888 92.4136 267.741C91.8243 256.594 91.4054 247.556 91.4906 247.549C91.5758 247.542 92.1225 256.58 92.7189 267.727C93.3153 278.874 93.72 287.919 93.6419 287.919Z" fill="#263238"/>
<path d="M93.6419 287.919C93.5567 287.919 91.5119 279.122 89.0553 268.238C86.5987 257.354 84.6817 248.493 84.7953 248.479C84.9089 248.465 86.9253 257.276 89.3819 268.167C91.8385 279.058 93.72 287.905 93.6419 287.919Z" fill="#263238"/>
<path d="M93.6419 287.919C93.5638 287.955 90.0919 279.605 85.8319 269.282C81.5719 258.958 78.2207 250.552 78.2988 250.516C78.3769 250.481 81.8488 258.831 86.1088 269.161C90.3688 279.492 93.72 287.891 93.6419 287.919Z" fill="#263238"/>
<path d="M93.6418 287.919C93.5708 287.969 88.7215 280.322 82.8143 270.879C76.9071 261.436 72.1643 253.69 72.2495 253.64C72.3347 253.591 77.1698 261.237 83.077 270.716C88.9842 280.194 93.7199 287.877 93.6418 287.919Z" fill="#263238"/>
<path d="M93.6419 287.919C93.578 287.976 87.5217 281.252 80.1519 272.903C72.7821 264.553 66.74 257.73 66.811 257.673C66.882 257.616 72.9312 264.34 80.3436 272.697C87.756 281.054 93.72 287.862 93.6419 287.919Z" fill="#263238"/>
<path d="M93.6419 287.919C93.5851 287.99 86.4922 282.367 77.7947 275.374C69.0972 268.38 62.0824 262.657 62.1321 262.594C62.1818 262.53 69.2818 268.146 77.9864 275.139C86.691 282.133 93.72 287.855 93.6419 287.919Z" fill="#263238"/>
<path d="M93.6419 287.919C93.5993 287.997 85.6615 283.659 75.8919 278.206C66.1223 272.754 58.2768 268.266 58.3194 268.217C58.362 268.167 66.2927 272.477 76.0694 277.937C85.8461 283.396 93.72 287.848 93.6419 287.919Z" fill="#263238"/>
<path d="M93.6419 287.919C93.6419 288.004 85.058 285.037 74.5429 281.309C64.0278 277.582 55.5078 274.479 55.5362 274.401C55.5646 274.323 64.1201 277.241 74.6423 281.018C85.1645 284.795 93.6703 287.841 93.6419 287.919Z" fill="#263238"/>
<path d="M93.6419 287.919C93.6419 288.004 84.6959 286.499 73.7051 284.596C62.7143 282.694 53.8251 281.046 53.8251 280.961C53.8251 280.876 62.7711 282.381 73.769 284.291C84.7669 286.201 93.6561 287.841 93.6419 287.919Z" fill="#263238"/>
<path d="M93.6419 287.919C93.6419 288.004 84.5894 288.033 73.4282 287.976C62.267 287.919 53.25 287.806 53.25 287.72C53.25 287.635 62.2954 287.614 73.4637 287.671C84.632 287.728 93.6419 287.834 93.6419 287.919Z" fill="#263238"/>
<path d="M93.6419 287.919C93.6419 288.004 84.7385 289.545 73.7193 291.356C62.7001 293.166 53.7612 294.572 53.747 294.487C53.7328 294.401 62.6504 292.868 73.6696 291.05C84.6888 289.233 93.6277 287.841 93.6419 287.919Z" fill="#263238"/>
<path d="M93.6419 287.919C93.6419 288.004 85.1219 291.008 74.5784 294.643C64.0349 298.278 55.4084 301.146 55.4084 301.068C55.4084 300.99 63.9284 297.98 74.479 294.352C85.0296 290.724 93.6135 287.841 93.6419 287.919Z" fill="#263238"/>
<path d="M93.6419 287.919C93.6845 287.997 85.768 292.392 75.97 297.738C66.172 303.085 58.22 307.352 58.1419 307.281C58.0638 307.21 66.03 302.808 75.8209 297.49C85.6118 292.172 93.5993 287.848 93.6419 287.919Z" fill="#263238"/>
<path d="M93.6419 287.919C93.6916 287.99 86.6271 293.642 77.8586 300.55C69.0901 307.458 61.9333 313.011 61.8836 312.947C61.8339 312.883 68.87 307.224 77.6669 300.33C86.4638 293.436 93.5922 287.855 93.6419 287.919Z" fill="#263238"/>
<path d="M93.6419 287.919C93.7058 287.976 87.685 294.735 80.1945 303.014C72.704 311.292 66.5838 317.959 66.5199 317.924C66.456 317.888 72.4768 311.108 79.9673 302.829C87.4578 294.551 93.578 287.862 93.6419 287.919Z" fill="#263238"/>
<path d="M93.6419 287.919C93.7129 287.969 88.9062 295.637 82.9067 305.052C76.9072 314.466 71.9869 322.091 71.9159 322.02C71.8449 321.949 76.6445 314.303 82.6511 304.888C88.6577 295.474 93.5709 287.877 93.6419 287.919Z" fill="#263238"/>
<path d="M93.6418 287.919C93.7199 287.955 90.2622 296.319 85.9241 306.606C81.586 316.894 78.0005 325.18 77.9224 325.18C77.8443 325.18 81.302 316.781 85.6401 306.493C89.9782 296.205 93.5637 287.891 93.6418 287.919Z" fill="#263238"/>
<path d="M93.6419 287.919C93.7271 287.919 91.7178 296.766 89.1618 307.636C86.6058 318.506 84.49 327.31 84.3764 327.31C84.2628 327.31 86.3005 318.47 88.8565 307.6C91.4125 296.73 93.5567 287.905 93.6419 287.919Z" fill="#263238"/>
<path d="M93.6419 287.919C93.7271 287.919 93.223 296.965 92.5201 308.105C91.8172 319.244 91.1711 328.276 91.1001 328.269C91.0291 328.261 91.519 319.23 92.229 308.083C92.939 296.936 93.5567 287.919 93.6419 287.919Z" fill="#263238"/>
<path d="M93.6418 287.919C93.727 287.919 94.7423 296.908 95.9138 308.012C97.0853 319.117 97.9587 328.119 97.8735 328.134C97.7883 328.148 96.7729 319.145 95.6014 308.041C94.4299 296.936 93.5566 287.933 93.6418 287.919Z" fill="#263238"/>
<path d="M93.6419 287.919C93.7271 287.919 96.2334 296.595 99.2367 307.345C102.24 318.094 104.626 326.834 104.54 326.856C104.455 326.877 101.956 318.179 98.9456 307.43C95.9352 296.681 93.5567 287.948 93.6419 287.919Z" fill="#263238"/>
<path d="M93.6419 287.919C93.72 287.919 97.6463 296.042 102.41 306.138C107.175 316.234 110.98 324.47 110.902 324.47C110.824 324.47 106.898 316.355 102.134 306.251C97.3694 296.148 93.5638 287.962 93.6419 287.919Z" fill="#263238"/>
<path d="M93.6418 287.919C93.7128 287.877 98.9455 295.261 105.336 304.413C111.726 313.564 116.845 321.034 116.774 321.083C116.703 321.133 111.47 313.749 105.08 304.59C98.6899 295.431 93.5708 287.969 93.6418 287.919Z" fill="#263238"/>
<path d="M93.642 287.919C93.7059 287.862 100.096 294.267 107.927 302.226C115.758 310.185 122.056 316.688 121.992 316.745C121.928 316.802 115.538 310.405 107.707 302.439C99.8758 294.473 93.5781 287.983 93.642 287.919Z" fill="#263238"/>
<path d="M93.6419 287.919C93.6916 287.855 101.068 293.095 110.121 299.634C119.173 306.173 126.451 311.527 126.451 311.598C126.451 311.669 119.024 306.422 109.972 299.883C100.919 293.344 93.5922 287.99 93.6419 287.919Z" fill="#263238"/>
<path d="M93.6418 287.919C93.6773 287.848 101.828 291.782 111.846 296.716C121.864 301.651 129.93 305.705 129.93 305.783C129.93 305.861 121.744 301.92 111.726 296.993C101.707 292.066 93.6063 287.997 93.6418 287.919Z" fill="#263238"/>
<path d="M93.6419 287.919C93.6419 287.841 102.361 290.355 113.06 293.542C123.76 296.73 132.415 299.379 132.394 299.464C132.372 299.549 123.675 297.028 112.968 293.841C102.261 290.653 93.6206 288.004 93.6419 287.919Z" fill="#263238"/>
<path d="M93.6418 287.919C93.6418 287.834 102.645 288.864 113.728 290.22C124.811 291.576 133.785 292.733 133.778 292.818C133.771 292.903 124.775 291.874 113.692 290.525C102.609 289.176 93.6347 288.004 93.6418 287.919Z" fill="#263238"/>
<path d="M93.6418 287.919C93.6418 287.834 102.673 287.344 113.827 286.826C124.981 286.308 134.027 285.953 134.027 286.038C134.027 286.123 124.995 286.613 113.841 287.131C102.687 287.649 93.6489 288.004 93.6418 287.919Z" fill="#263238"/>
<path d="M93.6418 287.919C93.6418 287.841 102.453 285.846 113.359 283.46C124.264 281.075 133.125 279.2 133.146 279.307C133.168 279.413 124.335 281.387 113.422 283.766C102.51 286.144 93.6631 288.004 93.6418 287.919Z" fill="#263238"/>
<path d="M93.6418 287.919C93.6418 287.841 101.977 284.369 112.336 280.23C122.695 276.091 131.116 272.739 131.144 272.818C131.172 272.896 122.809 276.367 112.45 280.514C102.091 284.66 93.6702 288.004 93.6418 287.919Z" fill="#263238"/>
<path d="M93.6419 287.919C93.5993 287.848 101.274 283.056 110.788 277.212C120.302 271.369 128.049 266.69 128.091 266.761C128.134 266.832 120.466 271.625 110.945 277.475C101.423 283.326 93.72 287.997 93.6419 287.919Z" fill="#263238"/>
<path d="M93.6418 287.919C93.585 287.855 100.351 281.842 108.751 274.493C117.15 267.145 124.009 261.23 124.065 261.294C124.122 261.358 117.356 267.372 108.957 274.727C100.557 282.083 93.7199 287.983 93.6418 287.919Z" fill="#263238"/>
<path d="M93.6419 287.919C93.578 287.869 99.2438 280.819 106.294 272.157C113.344 263.495 119.117 256.537 119.188 256.58C119.259 256.622 113.586 263.68 106.535 272.349C99.4852 281.018 93.72 287.976 93.6419 287.919Z" fill="#263238"/>
<path d="M93.642 287.919C93.571 287.877 97.973 279.974 103.475 270.261C108.978 260.549 113.508 252.71 113.6 252.76C113.692 252.81 109.269 260.705 103.759 270.418C98.2499 280.13 93.7201 287.962 93.642 287.919Z" fill="#263238"/>
<path d="M47.7262 287.919C47.7262 297 50.4191 305.878 55.4644 313.429C60.5097 320.979 67.6807 326.865 76.0707 330.34C84.4607 333.815 93.6928 334.724 102.6 332.953C111.506 331.181 119.688 326.808 126.109 320.387C132.531 313.965 136.904 305.784 138.675 296.877C140.447 287.97 139.538 278.738 136.062 270.348C132.587 261.958 126.702 254.787 119.151 249.742C111.6 244.696 102.723 242.004 93.6419 242.004C81.4643 242.004 69.7855 246.841 61.1746 255.452C52.5637 264.063 47.7262 275.742 47.7262 287.919ZM51.6028 287.919C51.6028 279.605 54.0683 271.477 58.6877 264.564C63.307 257.65 69.8726 252.262 77.5542 249.08C85.2359 245.898 93.6885 245.066 101.843 246.688C109.998 248.31 117.489 252.314 123.368 258.193C129.247 264.072 133.251 271.563 134.873 279.718C136.495 287.873 135.663 296.325 132.481 304.007C129.299 311.689 123.911 318.254 116.998 322.873C110.084 327.493 101.956 329.958 93.6419 329.958C82.4924 329.958 71.7996 325.529 63.9158 317.645C56.0319 309.761 51.6028 299.069 51.6028 287.919Z" fill="#263238"/>
<path d="M51.6028 287.919C51.6028 296.234 54.0683 304.362 58.6876 311.275C63.307 318.188 69.8726 323.576 77.5542 326.758C85.2359 329.94 93.6885 330.773 101.843 329.151C109.998 327.528 117.489 323.525 123.368 317.645C129.247 311.766 133.251 304.275 134.873 296.121C136.495 287.966 135.663 279.513 132.481 271.832C129.299 264.15 123.911 257.584 116.998 252.965C110.084 248.346 101.956 245.88 93.6419 245.88C82.4924 245.88 71.7996 250.309 63.9158 258.193C56.0319 266.077 51.6028 276.77 51.6028 287.919ZM53.2216 287.919C53.223 279.925 55.5948 272.111 60.0371 265.465C64.4794 258.819 70.7927 253.639 78.1786 250.581C85.5646 247.523 93.6915 246.723 101.532 248.284C109.372 249.844 116.574 253.694 122.226 259.347C127.878 265.001 131.727 272.203 133.286 280.043C134.845 287.884 134.044 296.011 130.985 303.396C127.925 310.782 122.744 317.094 116.097 321.535C109.451 325.976 101.636 328.347 93.6419 328.347C82.9254 328.339 72.6506 324.076 65.0763 316.495C57.5019 308.914 53.2481 298.636 53.25 287.919H53.2216Z" fill="#E0E0E0"/>
<path d="M196.414 287.919C196.414 297 199.107 305.878 204.153 313.429C209.198 320.979 216.369 326.865 224.759 330.34C233.149 333.815 242.381 334.724 251.288 332.953C260.195 331.181 268.376 326.808 274.797 320.387C281.219 313.965 285.592 305.784 287.364 296.877C289.135 287.97 288.226 278.738 284.751 270.348C281.275 261.958 275.39 254.787 267.84 249.742C260.289 244.696 251.411 242.004 242.33 242.004C236.3 242.004 230.33 243.191 224.759 245.499C219.188 247.806 214.126 251.188 209.863 255.452C205.599 259.716 202.217 264.777 199.91 270.348C197.602 275.919 196.414 281.889 196.414 287.919ZM200.291 287.919C200.291 279.605 202.757 271.477 207.376 264.564C211.995 257.65 218.561 252.262 226.242 249.08C233.924 245.898 242.377 245.066 250.532 246.688C258.686 248.31 266.177 252.314 272.056 258.193C277.936 264.072 281.939 271.563 283.561 279.718C285.184 287.873 284.351 296.325 281.169 304.007C277.987 311.689 272.599 318.254 265.686 322.873C258.773 327.493 250.645 329.958 242.33 329.958C231.181 329.958 220.488 325.529 212.604 317.645C204.72 309.761 200.291 299.069 200.291 287.919Z" fill="#263238"/>
<path d="M200.291 287.919C200.291 296.234 202.757 304.362 207.376 311.275C211.995 318.188 218.561 323.576 226.242 326.758C233.924 329.94 242.377 330.773 250.532 329.151C258.686 327.528 266.177 323.525 272.056 317.645C277.936 311.766 281.939 304.275 283.561 296.121C285.184 287.966 284.351 279.513 281.169 271.832C277.987 264.15 272.599 257.584 265.686 252.965C258.772 248.346 250.645 245.88 242.33 245.88C231.181 245.88 220.488 250.309 212.604 258.193C204.72 266.077 200.291 276.77 200.291 287.919ZM201.903 287.919C201.903 279.923 204.274 272.107 208.716 265.459C213.158 258.811 219.472 253.629 226.859 250.569C234.246 247.509 242.375 246.709 250.217 248.269C258.059 249.828 265.263 253.679 270.917 259.333C276.57 264.987 280.421 272.19 281.981 280.032C283.541 287.874 282.74 296.003 279.68 303.39C276.62 310.777 271.439 317.091 264.79 321.533C258.142 325.976 250.326 328.347 242.33 328.347C237.021 328.348 231.763 327.302 226.858 325.271C221.953 323.24 217.496 320.262 213.742 316.508C209.987 312.754 207.01 308.297 204.978 303.391C202.947 298.486 201.902 293.228 201.903 287.919Z" fill="#E0E0E0"/>
<path d="M177.23 306.081C173.801 306.081 171.11 305.13 169.214 303.241C165.806 299.854 166.168 294.721 166.225 294.089C165.153 287.543 176.336 285.171 176.811 285.072L234.627 281.046C234.896 280.982 242.437 279.42 247.471 282.701C249.238 283.858 249.743 285.81 248.969 288.516C248.315 290.669 247.067 292.595 245.367 294.071C243.668 295.547 241.586 296.513 239.362 296.858C225.198 299.166 191.018 304.668 179.609 305.939C178.819 306.03 178.025 306.078 177.23 306.081ZM239.135 281.345C237.656 281.337 236.179 281.472 234.726 281.749L176.904 285.775C176.84 285.775 165.913 288.111 166.964 294.018V294.11C166.964 294.167 166.445 299.464 169.747 302.744C171.877 304.874 175.207 305.726 179.559 305.236C190.955 303.965 225.113 298.463 239.277 296.155C241.366 295.837 243.323 294.935 244.922 293.553C246.521 292.171 247.698 290.366 248.315 288.345C249.025 285.974 248.592 284.284 247.108 283.318C244.687 281.735 241.62 281.345 239.135 281.345Z" fill="#E0E0E0"/>
<path d="M131.599 187.703C131.599 187.703 124.868 189.123 124.073 189.655C123.277 190.188 122.937 191.97 123.462 192.985C123.987 194 125.216 194.199 125.919 194.355C126.621 194.512 133.267 191.033 133.267 191.033C133.267 191.033 134.119 187.994 131.599 187.703Z" fill="#263238"/>
<path d="M140.09 206.099L139.515 206.028C138.372 205.893 135.255 205.772 134.304 205.112C133.917 204.809 133.598 204.429 133.366 203.997C133.133 203.564 132.993 203.088 132.955 202.599C132.891 201.751 132.941 200.898 133.104 200.064L133.452 199.957L134.573 197.352C131.781 197.104 128.973 197.104 126.181 197.352C125.137 196.535 126.217 197.785 125.329 196.812C124.69 196.102 124.009 195.222 124.328 194.341C124.524 193.939 124.794 193.578 125.123 193.276C125.289 193.127 125.418 192.942 125.501 192.735C125.585 192.529 125.621 192.306 125.606 192.083C125.521 191.643 124.797 191.125 124.477 191.437C123.826 191.996 123.249 192.636 122.759 193.34C122.271 194.043 122.082 194.912 122.234 195.754C122.499 196.573 122.991 197.299 123.654 197.849C122.672 198.082 121.813 198.675 121.247 199.51C118.875 203.536 122.581 207.838 126.927 210.48L124.392 218.29L127.53 219.979L130.115 211.8C130.328 211.255 130.471 210.685 130.541 210.103C130.541 209.251 128.198 208.257 128.198 208.257C128.198 208.257 122.084 204.565 123.007 201.306C123.334 200.163 126.373 199.638 129.092 199.737C128.856 200.615 128.734 201.519 128.73 202.428C128.873 203.83 129.54 205.125 130.597 206.056C131.244 206.622 132.004 207.043 132.827 207.292C135.195 207.908 137.653 208.108 140.09 207.881C140.303 207.848 140.497 207.74 140.637 207.577C140.777 207.413 140.854 207.205 140.854 206.99C140.854 206.775 140.777 206.567 140.637 206.403C140.497 206.24 140.303 206.132 140.09 206.099ZM123.845 197.799H123.76C123.639 197.643 123.54 197.529 123.845 197.799Z" fill="#E0E0E0"/>
<path d="M197.565 238.063L201.952 226.54H198.14L194.363 237.19L197.565 238.063Z" fill="#E0E0E0"/>
<path d="M188.111 299.052C190.592 292.992 187.69 286.068 181.63 283.587C175.569 281.107 168.645 284.009 166.165 290.069C163.684 296.13 166.586 303.053 172.646 305.534C178.707 308.015 185.631 305.113 188.111 299.052Z" fill="#263238"/>
<path d="M185.935 294.359C185.869 293.642 185.755 292.93 185.594 292.229C185.091 290.346 183.971 288.686 182.413 287.515C181.272 286.648 179.931 286.083 178.514 285.872C177.096 285.661 175.649 285.811 174.305 286.308C173.54 286.588 172.822 286.983 172.175 287.479C171.478 287.982 170.869 288.596 170.372 289.297C169.297 290.759 168.718 292.526 168.718 294.341C168.718 296.156 169.297 297.923 170.372 299.386C170.875 300.083 171.486 300.697 172.182 301.203C172.828 301.699 173.546 302.092 174.312 302.368C175.439 302.776 176.639 302.945 177.835 302.864C179.032 302.784 180.198 302.455 181.26 301.898C182.322 301.342 183.256 300.57 184.004 299.633C184.751 298.695 185.295 297.613 185.601 296.453C185.763 295.752 185.877 295.04 185.942 294.323C185.957 294.51 185.957 294.698 185.942 294.884C185.941 295.11 185.922 295.336 185.885 295.559C185.858 295.868 185.806 296.174 185.729 296.475C185.331 298.113 184.471 299.602 183.251 300.767C182.032 301.931 180.504 302.72 178.849 303.042C177.29 303.34 175.679 303.215 174.184 302.68C173.375 302.393 172.614 301.986 171.926 301.473C171.205 300.959 170.57 300.333 170.045 299.62C168.92 298.097 168.312 296.253 168.312 294.359C168.312 292.465 168.92 290.621 170.045 289.098C171.094 287.683 172.536 286.609 174.191 286.009C175.685 285.471 177.297 285.346 178.856 285.647C180.511 285.969 182.039 286.759 183.258 287.923C184.478 289.087 185.338 290.577 185.736 292.215C185.813 292.515 185.865 292.822 185.892 293.131C185.929 293.354 185.948 293.579 185.949 293.805C185.96 293.99 185.955 294.175 185.935 294.359Z" fill="#455A64"/>
<path d="M223.21 284.312H220.597V291.803H223.21V284.312Z" fill="#455A64"/>
<path d="M195.111 241.235L193.866 242.52L241.001 288.182L242.246 286.896L195.111 241.235Z" fill="#7F01D8"/>
<path d="M288.97 277.61C289.791 277.244 290.442 276.58 290.792 275.753C291.143 274.925 291.167 273.995 290.859 273.151C287.443 263.964 275.004 237.971 243.672 237.971C205.623 237.971 191.998 268.018 191.998 291.782L195.349 291.072C195.349 291.072 193.525 241.23 243.821 241.23C278.057 241.237 288.97 277.61 288.97 277.61Z" fill="#7F01D8"/>
<path d="M164.301 293.564C164.301 293.564 166.516 282.488 175.583 281.032C184.65 279.577 220.938 281.032 220.938 281.032C220.938 281.032 224.672 281.181 224.672 285.91L198.473 286.84L187.823 291.1C187.823 291.1 185.225 283.503 175.604 285.931C168.362 287.749 168.334 293.585 168.334 293.585L164.301 293.564Z" fill="#455A64"/>
<path d="M185.757 269.75V265.49C177.188 265.49 171.295 263.36 167.858 261.607C165.834 260.637 163.989 259.328 162.405 257.737L162.363 257.695L127.928 220.235L123.867 222.152L159.189 260.57C159.821 261.28 167.688 269.75 185.757 269.75Z" fill="#7F01D8"/>
<path d="M192.928 234.966L176.003 295.144L180.12 296.302L197.045 236.124L192.928 234.966Z" fill="#7F01D8"/>
<path d="M178.373 299.002L242.628 289.914L242.025 285.668L180.013 294.444L122.631 231.68L119.472 234.57L178.373 299.002Z" fill="#7F01D8"/>
<path d="M134.552 197.337H146.814C147.524 197.337 148.156 198.637 148.156 200.241C148.156 201.846 147.552 203.145 146.814 203.145L134.552 202.251C131.968 199.233 134.552 197.337 134.552 197.337Z" fill="#263238"/>
<path d="M140.076 302.204C140.26 302.418 140.5 302.576 140.769 302.661C141.038 302.745 141.326 302.754 141.599 302.684C141.873 302.615 142.121 302.471 142.317 302.268C142.514 302.066 142.65 301.812 142.71 301.537C144.265 294.593 146.885 276.098 135.681 260.151C123.256 242.458 106.912 239.092 97.98 237.85C97.5704 237.793 97.1536 237.822 96.7556 237.934C96.3575 238.046 95.987 238.239 95.667 238.501C95.3471 238.763 95.0847 239.088 94.8963 239.457C94.7079 239.825 94.5975 240.228 94.572 240.64C94.572 240.64 114.715 241.968 126.401 253.491C132.745 259.705 137.345 267.476 139.743 276.026C142.14 284.576 142.25 293.606 140.062 302.211L140.076 302.204Z" fill="#7F01D8"/>
<path d="M94.9696 289.616C103.916 282.566 111.648 266.108 112.01 265.412L112.088 265.22L127.963 220.207L124.413 218.297L108.083 263.694C107.459 264.993 100.181 280.081 92.3497 286.251L94.9696 289.616Z" fill="#7F01D8"/>
<path d="M202.606 248.5L214.179 234.03H264.283C264.401 234.031 264.518 234.009 264.627 233.964C264.736 233.919 264.835 233.854 264.918 233.77C265.001 233.687 265.067 233.588 265.112 233.479C265.156 233.37 265.179 233.253 265.178 233.136C265.178 233.018 265.155 232.902 265.11 232.794C265.065 232.686 264.999 232.588 264.915 232.506C264.832 232.423 264.734 232.358 264.625 232.314C264.517 232.269 264.4 232.247 264.283 232.248H213.319L201.313 247.25L202.606 248.5Z" fill="#7F01D8"/>
<path d="M251.452 232.999L241.807 287.641L243.569 287.952L253.214 233.31L251.452 232.999Z" fill="#7F01D8"/>
<path d="M85.7041 288.182C85.7041 286.612 86.1696 285.077 87.0419 283.772C87.9141 282.467 89.1538 281.449 90.6042 280.848C92.0547 280.248 93.6507 280.09 95.1905 280.397C96.7303 280.703 98.1447 281.459 99.2548 282.569C100.365 283.679 101.121 285.094 101.427 286.633C101.733 288.173 101.576 289.769 100.975 291.22C100.375 292.67 99.3573 293.91 98.0519 294.782C96.7465 295.654 95.2119 296.12 93.6419 296.12C91.5372 296.118 89.5193 295.281 88.0311 293.793C86.5429 292.304 85.706 290.287 85.7041 288.182Z" fill="#263238"/>
<path d="M212.659 223.984C212.389 225.503 211.161 231.921 208.108 232.582C205.055 233.242 183.322 232.944 180.013 232.582C177.883 232.355 176.265 229.138 181.093 228.457C188.036 227.47 213.256 220.59 212.659 223.984Z" fill="#455A64"/>
<path d="M124.385 218.297C124.412 218.101 124.457 217.909 124.52 217.721C124.648 217.303 124.804 216.77 124.995 216.124C125.443 214.704 126.046 212.759 126.763 210.444L126.841 210.636C124.561 209.444 122.609 207.708 121.161 205.58L120.991 205.197L120.92 205.069C120.393 204.061 120.166 202.922 120.267 201.789C120.38 200.724 120.886 199.739 121.687 199.027C122.424 198.424 123.284 197.991 124.207 197.756C124.991 197.542 125.792 197.393 126.6 197.309C127.765 197.182 128.937 197.147 130.107 197.203C130.526 197.203 130.817 197.252 131.059 197.274C131.173 197.273 131.285 197.292 131.393 197.33C131.393 197.33 130.931 197.33 130.107 197.33C128.947 197.334 127.787 197.407 126.636 197.55C125.844 197.652 125.06 197.813 124.293 198.033C123.42 198.269 122.609 198.69 121.914 199.269C121.177 199.924 120.708 200.83 120.601 201.81C120.507 202.873 120.722 203.94 121.218 204.885L121.282 204.998C121.339 205.133 121.403 205.261 121.453 205.382C122.861 207.451 124.743 209.155 126.941 210.352L127.062 210.416L127.019 210.543C126.252 212.83 125.599 214.761 125.123 216.174C124.896 216.813 124.711 217.331 124.569 217.743C124.533 217.935 124.471 218.121 124.385 218.297Z" fill="#263238"/>
<path d="M127.75 220.718C127.85 220.753 124.349 230.913 119.94 243.438C115.531 255.962 111.875 266.058 111.775 266.023C111.676 265.987 115.176 255.827 119.585 243.303C123.994 230.778 127.658 220.682 127.75 220.718Z" fill="#263238"/>
<path d="M265.178 234.186C265.178 234.286 253.669 234.371 239.476 234.371C225.283 234.371 213.767 234.286 213.767 234.186C213.767 234.087 225.276 234.002 239.476 234.002C253.676 234.002 265.178 234.08 265.178 234.186Z" fill="#263238"/>
<path d="M134.474 227.335V233.718L136.341 235.663V229.287L134.474 227.335Z" fill="#E0E0E0"/>
<path d="M248.095 252.994C247.996 252.994 248.656 248.734 249.572 243.558C250.488 238.382 251.319 234.165 251.418 234.186C251.518 234.208 250.857 238.446 249.941 243.622C249.025 248.798 248.195 253.008 248.095 252.994Z" fill="#263238"/>
<path d="M249.757 252.05C249.657 252.05 250.318 248.024 251.234 243.097C252.149 238.17 252.973 234.186 253.072 234.208C253.172 234.229 252.512 238.233 251.596 243.161C250.68 248.088 249.856 252.05 249.757 252.05Z" fill="#263238"/>
<path d="M178.742 315.659L179.232 315.744L179.083 315.446L178.742 315.659Z" fill="#FFBE9D"/>
<path d="M178.274 284.249L164.344 286.726L179.083 315.446L188.42 309.652L178.274 284.249Z" fill="#FAE2C0"/>
<path d="M176.549 312.01L176.847 312.72C176.847 312.72 166.8 322.702 167.617 325.059L191.608 314.757L187.852 306.947C186.44 308.552 184.701 309.834 182.751 310.707C180.8 311.581 178.685 312.025 176.549 312.01Z" fill="#455A64"/>
<path d="M186.538 310.519C186.8 310.49 187.063 310.559 187.276 310.712C187.49 310.865 187.639 311.092 187.696 311.349C187.735 311.608 187.673 311.873 187.522 312.087C187.372 312.302 187.144 312.449 186.886 312.499C186.61 312.53 186.332 312.457 186.106 312.294C185.88 312.132 185.723 311.891 185.665 311.619C185.653 311.343 185.749 311.074 185.931 310.867C186.114 310.661 186.37 310.533 186.645 310.511" fill="white"/>
<path d="M191.629 314.764L190.727 312.883L168.064 323.44C168.064 323.44 167.198 324.363 167.638 325.066L191.629 314.764Z" fill="#263238"/>
<path d="M176.79 312.826C176.847 312.947 177.45 312.748 178.21 312.876C178.97 313.004 179.467 313.366 179.559 313.273C179.651 313.181 179.183 312.563 178.281 312.435C177.379 312.308 176.719 312.734 176.79 312.826Z" fill="#263238"/>
<path d="M174.724 314.949C174.724 315.077 175.335 315.055 175.945 315.382C176.556 315.709 176.897 316.177 177.01 316.128C177.124 316.078 176.918 315.375 176.151 314.984C175.384 314.594 174.66 314.835 174.724 314.949Z" fill="#263238"/>
<path d="M174.582 318.577C174.703 318.577 174.617 317.867 174.035 317.384C173.453 316.901 172.807 316.852 172.8 316.972C172.793 317.093 173.275 317.292 173.744 317.718C174.213 318.144 174.461 318.612 174.582 318.577Z" fill="#263238"/>
<path d="M170.599 226.824C170.599 226.824 151.805 250.254 150.08 257.24C148.93 261.912 150.903 266.364 152.579 268.841C155.277 272.832 167.773 294.607 167.773 294.607L179.509 289.637L170.599 266.598V262.523L196.159 228.783L173.098 223.103L170.599 226.824Z" fill="#263238"/>
<path d="M186.829 302.148L181.575 320.217L179.396 320.558L184.11 301.225L186.829 302.148Z" fill="#263238"/>
<path d="M177.706 325.377L188.941 320.736L187.633 317.568L176.397 322.209L177.706 325.377Z" fill="#263238"/>
<path d="M191.572 260.769C191.672 260.769 189.116 270.169 185.892 281.7C182.669 293.23 179.921 302.559 179.822 302.531C179.722 302.503 182.278 293.131 185.502 281.6C188.725 270.07 191.48 260.74 191.572 260.769Z" fill="#263238"/>
<path d="M232.447 288.182C232.445 286.33 232.993 284.52 234.021 282.98C235.049 281.44 236.51 280.24 238.22 279.531C239.931 278.822 241.813 278.636 243.629 278.996C245.444 279.357 247.113 280.249 248.422 281.558C249.731 282.867 250.622 284.535 250.983 286.351C251.344 288.167 251.158 290.049 250.449 291.759C249.74 293.469 248.539 294.931 246.999 295.958C245.459 296.986 243.649 297.534 241.798 297.533C239.318 297.533 236.939 296.547 235.186 294.794C233.432 293.04 232.447 290.662 232.447 288.182Z" fill="#263238"/>
<path d="M150.158 247.165C150.158 247.165 150.08 247.165 149.931 247.115C149.715 247.034 149.51 246.927 149.32 246.796C148.97 246.55 148.675 246.233 148.455 245.867C148.235 245.5 148.094 245.091 148.042 244.666C148 244.403 147.893 244.254 147.659 244.318C147.368 244.444 147.052 244.498 146.736 244.474C146.386 244.38 146.069 244.192 145.818 243.931C145.568 243.669 145.394 243.344 145.316 242.99C145.198 242.289 145.025 241.598 144.797 240.924C144.748 240.782 144.649 240.663 144.518 240.587C144.388 240.512 144.235 240.485 144.087 240.512C143.775 240.569 143.377 240.853 142.852 240.704C141.901 240.356 141.723 239.327 141.666 238.624C141.642 238.271 141.573 237.923 141.46 237.587C141.348 237.293 141.123 237.056 140.836 236.927C140.718 236.859 140.581 236.831 140.445 236.846C140.31 236.861 140.183 236.92 140.083 237.012C139.982 237.147 139.873 237.275 139.756 237.396C139.677 237.457 139.585 237.501 139.487 237.524C139.389 237.547 139.287 237.55 139.188 237.53C139.024 237.485 138.873 237.4 138.749 237.282C138.625 237.165 138.532 237.018 138.478 236.856C138.374 236.593 138.291 236.323 138.23 236.047C138.036 235.229 137.981 234.384 138.067 233.547C138.077 233.241 138.14 232.938 138.251 232.653C138.251 232.653 138.251 232.979 138.209 233.555C138.182 234.373 138.275 235.191 138.486 235.983C138.635 236.444 138.755 237.133 139.259 237.232C139.515 237.289 139.622 237.097 139.863 236.792C140.007 236.648 140.193 236.553 140.395 236.521C140.597 236.489 140.803 236.522 140.985 236.615C141.356 236.776 141.649 237.077 141.801 237.452C141.934 237.816 142.015 238.196 142.043 238.581C142.061 238.944 142.138 239.301 142.27 239.639C142.332 239.801 142.427 239.948 142.549 240.07C142.671 240.192 142.818 240.288 142.98 240.349C143.285 240.456 143.612 240.257 144.038 240.15C144.157 240.121 144.282 240.115 144.403 240.133C144.525 240.151 144.642 240.193 144.748 240.257C144.932 240.383 145.082 240.554 145.181 240.754C145.414 241.448 145.587 242.161 145.699 242.884C145.758 243.177 145.894 243.448 146.092 243.672C146.29 243.895 146.544 244.062 146.828 244.155C147.107 244.174 147.387 244.128 147.645 244.02C147.735 243.999 147.83 244.002 147.92 244.028C148.009 244.054 148.09 244.103 148.156 244.169C148.258 244.292 148.32 244.443 148.333 244.602C148.371 245.003 148.489 245.392 148.679 245.747C148.869 246.101 149.128 246.415 149.441 246.668C149.671 246.847 149.91 247.013 150.158 247.165Z" fill="white"/>
<path d="M219.511 142.71C217.232 142.618 212.07 144.187 211.701 141.936C211.701 141.936 199.631 139.707 199.269 139.884C198.906 140.062 191.877 139.579 191.877 139.579H188.597L190.124 146.189C192.339 146.501 194.327 147.701 196.137 149.029C197.948 150.357 199.687 151.826 201.668 152.82C203.649 153.814 206.077 154.24 208.158 153.438C209.578 152.877 210.685 151.784 211.978 151.003C213.864 149.869 216.076 149.396 218.261 149.661C219.3 149.886 220.358 150.01 221.421 150.03L224.53 145.01C222.471 143.775 221.79 142.817 219.511 142.71Z" fill="#BB1A1D"/>
<path d="M167.162 117.306C165.882 118.716 164.91 120.377 164.308 122.184C163.707 123.991 163.489 125.904 163.669 127.8C163.918 130.278 164.841 132.635 165.288 135.085C165.87 138.322 165.657 141.815 167.29 144.67C168.414 146.524 170.111 147.963 172.125 148.766C174.13 149.559 176.267 149.966 178.423 149.966C180.681 150.023 183.066 149.746 184.912 148.433C187.241 146.778 188.242 143.853 189.023 141.098C189.804 138.343 190.599 135.418 192.722 133.487" fill="#BB1A1D"/>
<path d="M230.04 133.423C233.973 132.308 234.513 130.47 234.513 130.47C234.513 130.47 233.398 126.259 233.022 124.548C232.61 122.709 231.971 120.558 231.602 118.868C230.743 120.906 227.101 122.461 225.02 121.708C222.94 120.956 220.533 118.485 216.628 117.839C212.886 117.221 209.081 120.366 206.688 120.948C201.058 122.312 201.129 114.416 195.328 114.083C193.333 113.969 189.918 115.503 187.937 115.247C184.834 114.85 182.257 110.902 179.154 110.32C176.733 109.865 171.699 110.781 169.988 112.563C168.277 114.345 167.454 115.105 166.864 117.533L184.529 136.952C186.029 138.619 187.86 139.956 189.905 140.876C191.95 141.797 194.165 142.281 196.407 142.298C198.63 142.298 200.816 142.66 202.187 143.434C204.963 145.01 208.172 146.721 211.19 145.671C213.483 144.868 214.995 142.653 217.161 141.538C219.852 140.161 223.075 140.672 226.071 141.049C229.067 141.425 232.589 141.503 234.875 139.394L232.71 134.9C229.915 135.383 227.039 134.881 224.573 133.48C226.085 133.48 228.62 133.842 230.04 133.423Z" fill="#BB1A1D"/>
<path d="M166.097 127.401C165.555 123.536 167.273 118.346 171.42 118L184.724 118.653C185.331 118.602 185.936 118.767 186.42 119.115C186.903 119.464 187.229 119.97 187.333 120.533L191 148.443C190.485 149.155 178.183 159 178.183 159L177.996 156.01C177.996 156.01 176.604 145.975 176.604 146.008C176.604 146.041 171.225 146.158 168.818 139.982C167.614 136.946 166.703 131.717 166.097 127.401Z" fill="#FAE2C0"/>
<path d="M168.831 133.729C168.879 133.958 169.014 134.159 169.207 134.291C169.4 134.424 169.637 134.476 169.867 134.439C169.982 134.425 170.093 134.389 170.194 134.333C170.295 134.276 170.383 134.2 170.454 134.109C170.525 134.017 170.576 133.913 170.606 133.801C170.636 133.69 170.643 133.573 170.627 133.459C170.579 133.23 170.444 133.028 170.251 132.896C170.058 132.763 169.822 132.711 169.591 132.749C169.476 132.762 169.365 132.798 169.264 132.854C169.163 132.911 169.075 132.987 169.004 133.079C168.934 133.17 168.882 133.274 168.852 133.386C168.822 133.498 168.815 133.614 168.831 133.729Z" fill="#263238"/>
<path d="M167.652 131.045C167.787 131.137 168.362 130.512 169.321 130.335C170.279 130.157 171.067 130.491 171.153 130.335C171.238 130.179 171.039 130.086 170.691 129.923C170.22 129.717 169.697 129.663 169.193 129.767C168.696 129.86 168.241 130.108 167.894 130.477C167.645 130.775 167.56 131.002 167.652 131.045Z" fill="#263238"/>
<path d="M176.882 132.337C176.93 132.566 177.065 132.768 177.258 132.9C177.451 133.032 177.688 133.085 177.919 133.047C178.033 133.033 178.144 132.996 178.244 132.939C178.344 132.882 178.432 132.806 178.503 132.715C178.573 132.624 178.625 132.52 178.656 132.409C178.686 132.297 178.694 132.181 178.679 132.067C178.627 131.84 178.492 131.64 178.3 131.508C178.108 131.377 177.873 131.323 177.642 131.357C177.528 131.371 177.417 131.408 177.317 131.465C177.217 131.521 177.129 131.598 177.058 131.689C176.988 131.78 176.936 131.884 176.905 131.995C176.875 132.107 176.867 132.223 176.882 132.337Z" fill="#263238"/>
<path d="M176.79 129.22C176.925 129.312 177.5 128.68 178.451 128.51C179.403 128.34 180.205 128.666 180.29 128.51C180.375 128.354 180.177 128.262 179.822 128.098C179.353 127.892 178.833 127.835 178.331 127.935C177.833 128.028 177.379 128.277 177.031 128.645C176.79 128.957 176.74 129.22 176.79 129.22Z" fill="#263238"/>
<path d="M174.788 136.625C174.255 136.557 173.716 136.557 173.183 136.625C172.928 136.625 172.693 136.625 172.615 136.49C172.538 136.243 172.538 135.978 172.615 135.731C172.729 135.099 172.849 134.431 172.97 133.729C173.46 130.889 173.758 128.567 173.638 128.546C173.143 130.221 172.783 131.932 172.558 133.665C172.445 134.375 172.338 135.035 172.232 135.674C172.136 135.998 172.159 136.345 172.296 136.654C172.347 136.733 172.416 136.8 172.497 136.848C172.578 136.896 172.67 136.924 172.764 136.931C172.906 136.95 173.049 136.95 173.19 136.931C173.733 136.891 174.269 136.789 174.788 136.625Z" fill="#263238"/>
<path d="M177 146.342C179.976 145.743 182.745 144.241 185 142C185 142 183.709 147.282 177.297 148L177 146.342Z" fill="#FDD398"/>
<path d="M175.42 125.67C175.562 125.911 176.492 125.599 177.642 125.514C178.792 125.429 179.772 125.556 179.864 125.294C179.907 125.173 179.701 124.96 179.289 124.775C178.74 124.561 178.149 124.476 177.562 124.527C176.975 124.577 176.407 124.762 175.902 125.066C175.519 125.287 175.37 125.535 175.42 125.67Z" fill="#263238"/>
<path d="M166.978 127.8C167.184 127.985 167.801 127.63 168.59 127.466C169.378 127.303 170.081 127.324 170.194 127.069C170.237 126.941 170.095 126.742 169.761 126.6C169.318 126.43 168.835 126.395 168.372 126.5C167.909 126.604 167.488 126.845 167.162 127.189C166.928 127.459 166.85 127.701 166.978 127.8Z" fill="#263238"/>
<path d="M174.937 139.685C175.159 140.072 175.436 140.424 175.76 140.729C175.924 140.882 176.118 140.999 176.329 141.073C176.541 141.146 176.766 141.174 176.989 141.155C177.224 141.109 177.444 141.004 177.627 140.85C177.811 140.696 177.953 140.498 178.04 140.275C178.214 139.821 178.237 139.322 178.103 138.855C177.997 138.436 177.706 137.967 177.273 138.003C177.096 138.032 176.93 138.105 176.79 138.216L174.766 139.55" fill="#EB996E"/>
<path d="M176.172 141.29C176.576 141.236 176.965 141.109 177.322 140.914C177.67 140.684 177.922 140.336 178.032 139.934C178.091 139.692 178.098 139.441 178.054 139.197C178.01 138.953 177.916 138.72 177.777 138.514C177.703 138.407 177.617 138.31 177.521 138.223C177.415 138.145 177.429 138.145 177.337 138.18C177.244 138.216 177.124 138.322 177.01 138.386L176.683 138.606C176.243 138.89 175.853 139.146 175.519 139.352C175.178 139.61 174.796 139.812 174.39 139.948C174.668 139.624 174.993 139.343 175.356 139.117L176.47 138.301L176.797 138.074C176.918 137.996 177.003 137.917 177.166 137.825C177.265 137.76 177.382 137.73 177.5 137.74C177.605 137.766 177.703 137.817 177.784 137.889C177.909 137.997 178.019 138.121 178.111 138.258C178.288 138.514 178.406 138.806 178.455 139.113C178.504 139.421 178.483 139.735 178.395 140.033C178.243 140.517 177.906 140.92 177.457 141.155C177.171 141.319 176.843 141.398 176.513 141.382C176.286 141.396 176.172 141.347 176.172 141.29Z" fill="#263238"/>
<path d="M179.971 121.509C182.082 123.579 183.446 126.291 183.847 129.22C184.217 132.976 185.267 132.983 186.453 131.52C189.478 127.85 190.429 134.843 191.849 136.49C193.397 138.301 196.109 138.62 198.445 138.258C200.781 137.896 203.074 137.03 205.446 136.952C207.412 136.888 209.351 137.378 211.31 137.527C213.27 137.676 215.4 137.428 216.869 136.107C213.923 136.71 210.905 135.667 208.151 134.474C205.396 133.281 202.62 131.89 199.631 131.74C198.125 131.669 196.542 131.904 195.165 131.293C192.871 130.278 192.133 127.459 191.416 125.052C190.919 123.129 190.066 121.316 188.903 119.706C187.723 118.087 185.952 117 183.975 116.681C182.991 116.545 181.988 116.702 181.093 117.132C180.197 117.563 179.449 118.248 178.941 119.102" fill="#BB1A1D"/>
<path d="M187.44 130.683C187.539 130.626 191.608 129 191.885 133.281C192.161 137.563 187.802 136.952 187.788 136.831C187.774 136.711 187.44 130.683 187.44 130.683Z" fill="#FAE2C0"/>
<path d="M188.612 135.163C188.612 135.163 188.69 135.212 188.817 135.262C188.998 135.332 189.198 135.332 189.378 135.262C189.637 135.065 189.839 134.803 189.964 134.502C190.088 134.202 190.131 133.873 190.088 133.551C190.075 133.185 189.981 132.826 189.811 132.5C189.761 132.369 189.68 132.251 189.575 132.157C189.47 132.063 189.344 131.996 189.208 131.961C189.121 131.946 189.031 131.961 188.954 132.003C188.877 132.046 188.816 132.113 188.782 132.195C188.732 132.316 188.782 132.401 188.746 132.408C188.711 132.415 188.647 132.344 188.668 132.166C188.686 132.059 188.741 131.96 188.825 131.89C188.879 131.841 188.943 131.804 189.013 131.78C189.083 131.757 189.156 131.749 189.229 131.755C189.406 131.778 189.575 131.846 189.718 131.953C189.861 132.06 189.974 132.202 190.046 132.365C190.252 132.725 190.368 133.13 190.387 133.544C190.432 133.924 190.363 134.308 190.19 134.65C190.017 134.991 189.747 135.273 189.414 135.461C189.298 135.505 189.174 135.521 189.051 135.509C188.927 135.496 188.809 135.456 188.704 135.39C188.626 135.262 188.597 135.17 188.612 135.163Z" fill="#EB996E"/>
<path d="M217.544 114.118C217.544 114.118 217.438 114.296 217.203 114.615C216.861 115.081 216.476 115.514 216.053 115.907C215.382 116.528 214.626 117.052 213.809 117.462C212.722 118.011 211.538 118.339 210.323 118.428C208.849 118.524 207.372 118.282 206.006 117.718C205.249 117.405 204.534 117 203.876 116.511C203.209 116 202.584 115.389 201.931 114.793C201.295 114.164 200.579 113.622 199.801 113.181C198.961 112.759 198.013 112.603 197.082 112.734C196.117 112.888 195.177 113.167 194.284 113.564C193.36 113.978 192.412 114.336 191.444 114.637C190.95 114.78 190.44 114.863 189.925 114.885C189.797 114.896 189.669 114.896 189.542 114.885C189.416 114.892 189.291 114.892 189.165 114.885L188.789 114.807C188.663 114.788 188.539 114.755 188.42 114.708C187.943 114.546 187.497 114.306 187.099 113.998C186.703 113.708 186.332 113.385 185.992 113.032C185.282 112.322 184.706 111.612 184.039 110.973C183.708 110.66 183.349 110.377 182.967 110.128C182.595 109.886 182.191 109.697 181.767 109.567C181.355 109.434 180.928 109.353 180.496 109.326C180.075 109.301 179.651 109.315 179.232 109.368C178.429 109.474 177.639 109.665 176.875 109.936C176.165 110.192 175.455 110.49 174.745 110.795C174.035 111.101 173.446 111.392 172.849 111.697C171.765 112.226 170.733 112.856 169.768 113.579C169.046 114.13 168.408 114.783 167.872 115.517C167.773 115.673 167.666 115.815 167.588 115.957C167.51 116.099 167.432 116.241 167.361 116.369C167.24 116.625 167.148 116.852 167.07 117.036L166.935 117.462C166.935 117.555 166.885 117.604 166.885 117.604C166.885 117.604 166.886 117.555 166.921 117.455L167.049 117.022C167.113 116.838 167.205 116.61 167.326 116.348L167.546 115.936C167.624 115.787 167.73 115.645 167.83 115.489C168.361 114.741 169 114.076 169.725 113.515C170.69 112.784 171.722 112.147 172.807 111.612C173.403 111.3 174.035 111.001 174.703 110.696C175.37 110.391 176.073 110.093 176.833 109.83C177.602 109.549 178.399 109.353 179.211 109.248C179.637 109.192 180.067 109.175 180.496 109.198C180.939 109.229 181.378 109.31 181.803 109.439C182.236 109.575 182.649 109.769 183.031 110.014C183.419 110.269 183.783 110.559 184.117 110.881C184.827 111.52 185.409 112.251 186.084 112.933C186.417 113.283 186.781 113.604 187.17 113.891C187.557 114.196 187.991 114.436 188.455 114.601C188.57 114.646 188.689 114.677 188.81 114.693L189.172 114.771C189.293 114.771 189.421 114.771 189.542 114.771C189.667 114.779 189.793 114.779 189.918 114.771C190.421 114.754 190.919 114.673 191.402 114.53C193.361 113.99 195.101 112.876 197.082 112.627C198.04 112.493 199.017 112.656 199.879 113.096C200.679 113.539 201.414 114.088 202.066 114.729C202.719 115.332 203.337 115.936 204.004 116.44C204.659 116.93 205.375 117.334 206.134 117.64C207.482 118.195 208.939 118.438 210.394 118.35C211.597 118.268 212.772 117.95 213.852 117.413C214.668 117.012 215.423 116.498 216.096 115.886C216.522 115.502 216.912 115.079 217.26 114.622C217.381 114.466 217.466 114.338 217.523 114.26C217.527 114.213 217.534 114.165 217.544 114.118Z" fill="#BB1A1D"/>
<path d="M168.149 118.194C168.432 118.811 168.837 119.364 169.34 119.821C169.843 120.277 170.433 120.627 171.074 120.849C172.365 121.283 173.74 121.404 175.086 121.204C176.179 121.069 177.358 120.814 178.338 121.325C178.938 121.733 179.472 122.231 179.921 122.802C180.885 123.769 182.117 124.425 183.458 124.683C184.798 124.941 186.186 124.79 187.44 124.25C186.587 122.603 185.416 121.14 183.996 119.947C182.575 118.754 180.933 117.854 179.163 117.298C177.393 116.742 175.531 116.542 173.683 116.71C171.836 116.877 170.039 117.408 168.398 118.272" fill="#BB1A1D"/>
<path d="M233.327 125.848C233.327 125.848 233.292 125.904 233.207 126.011C233.121 126.117 232.994 126.245 232.816 126.423C232.286 126.938 231.7 127.393 231.07 127.779C230.074 128.407 228.964 128.831 227.804 129.028C227.076 129.151 226.335 129.17 225.603 129.085C224.783 128.925 224.005 128.599 223.316 128.127C221.838 127.006 220.241 126.054 218.552 125.287C218.087 125.104 217.588 125.025 217.09 125.053C216.591 125.081 216.104 125.216 215.663 125.45C214.716 125.983 213.849 126.645 213.085 127.417C212.275 128.264 211.375 129.021 210.401 129.674C209.827 129.94 209.199 130.07 208.567 130.055C207.934 130.04 207.313 129.881 206.752 129.589C205.599 129.059 204.543 128.339 203.628 127.459C203.16 127.017 202.724 126.542 202.322 126.039C201.925 125.533 201.504 125.047 201.058 124.584C200.274 123.752 199.355 123.061 198.339 122.539C197.203 122.297 196.021 122.419 194.959 122.887C193.909 123.332 192.884 123.837 191.892 124.399C190.907 124.949 189.832 125.319 188.718 125.493C187.631 125.607 186.533 125.43 185.537 124.981C183.754 124.112 182.251 122.759 181.199 121.076C180.688 120.366 180.113 119.656 179.311 119.514C178.518 119.511 177.731 119.641 176.982 119.898C176.61 119.99 176.222 120.001 175.846 119.928C175.469 119.856 175.113 119.703 174.802 119.479C174.288 119.074 173.813 118.622 173.382 118.13C173.011 117.712 172.572 117.362 172.083 117.093C171.672 116.879 171.201 116.814 170.748 116.909C170.119 117.074 169.54 117.388 169.058 117.825C168.717 118.109 168.547 118.272 168.54 118.265C168.533 118.258 168.54 118.215 168.646 118.13C168.753 118.045 168.845 117.924 169.016 117.768C169.492 117.3 170.078 116.958 170.72 116.774C171.198 116.668 171.698 116.726 172.14 116.937C172.651 117.207 173.112 117.562 173.503 117.988C173.937 118.464 174.412 118.901 174.923 119.294C175.209 119.499 175.537 119.637 175.884 119.699C176.23 119.76 176.586 119.743 176.925 119.649C177.703 119.379 178.522 119.242 179.346 119.245C179.801 119.322 180.221 119.534 180.553 119.855C180.882 120.172 181.175 120.524 181.426 120.906C182.47 122.534 183.945 123.842 185.686 124.683C186.628 125.102 187.665 125.264 188.69 125.152C189.763 124.979 190.797 124.616 191.743 124.08C192.746 123.508 193.782 122.996 194.845 122.546C195.977 122.049 197.237 121.922 198.445 122.184C199.508 122.724 200.469 123.444 201.285 124.314C201.738 124.787 202.167 125.282 202.57 125.798C202.959 126.301 203.384 126.776 203.841 127.218C204.715 128.095 205.733 128.815 206.851 129.348C207.363 129.619 207.929 129.77 208.507 129.789C209.085 129.809 209.66 129.697 210.188 129.461C211.137 128.822 212.015 128.085 212.808 127.26C213.599 126.468 214.498 125.792 215.478 125.251C215.961 125.003 216.491 124.86 217.034 124.833C217.576 124.806 218.118 124.895 218.623 125.095C220.533 125.805 222.01 127.076 223.416 128.006C224.069 128.467 224.812 128.789 225.595 128.95C226.302 129.054 227.019 129.054 227.725 128.95C228.866 128.777 229.961 128.381 230.949 127.786C231.58 127.415 232.174 126.984 232.724 126.501L233.136 126.11C233.184 126.012 233.249 125.923 233.327 125.848Z" fill="#455A64"/>
<path d="M196.145 118.811C195.732 118.754 195.314 118.754 194.902 118.811C194.412 118.901 193.935 119.051 193.482 119.259C192.957 119.493 192.382 119.812 191.7 120.111C190.071 120.8 188.236 120.826 186.588 120.182C184.714 119.472 183.201 117.839 181.618 116.305C180.869 115.547 180.035 114.877 179.133 114.31C178.292 113.794 177.335 113.496 176.35 113.444C174.66 113.461 173.009 113.953 171.586 114.864C170.598 115.451 169.693 116.167 168.895 116.994C168.327 117.576 168.057 117.931 168.029 117.917C168.073 117.815 168.13 117.72 168.199 117.633C168.384 117.385 168.583 117.148 168.795 116.923C169.567 116.052 170.461 115.298 171.451 114.686C172.911 113.724 174.615 113.199 176.364 113.174C177.407 113.221 178.422 113.526 179.318 114.061C180.256 114.634 181.123 115.316 181.902 116.092C183.499 117.64 184.969 119.209 186.744 119.912C188.312 120.539 190.061 120.539 191.629 119.912C192.296 119.649 192.886 119.337 193.425 119.124C193.89 118.924 194.38 118.788 194.881 118.719C195.196 118.672 195.517 118.672 195.832 118.719C195.941 118.73 196.047 118.762 196.145 118.811Z" fill="#455A64"/>
<path d="M233.938 136.093C233.825 136.207 233.698 136.307 233.562 136.391C233.182 136.657 232.784 136.895 232.369 137.101C230.828 137.897 229.131 138.343 227.399 138.407C226.203 138.454 225.006 138.322 223.849 138.017C222.562 137.607 221.297 137.133 220.057 136.597C218.718 135.988 217.203 135.892 215.797 136.327C214.377 136.881 213.44 138.244 212.29 139.43C211.718 140.038 211.027 140.522 210.259 140.85C209.484 141.15 208.636 141.214 207.824 141.034C207.041 140.87 206.32 140.489 205.744 139.934C205.262 139.376 204.816 138.788 204.409 138.173C204.225 137.902 203.989 137.67 203.713 137.493C203.437 137.316 203.128 137.197 202.804 137.144C202.172 137.09 201.536 137.17 200.937 137.378C200.334 137.548 199.759 137.761 199.162 137.882C198.601 138.007 198.025 138.058 197.451 138.031C195.708 137.966 194.042 137.299 192.737 136.143C192.254 135.75 191.851 135.268 191.551 134.723C191.935 135.21 192.363 135.662 192.829 136.071C194.133 137.153 195.764 137.764 197.458 137.804C198.012 137.822 198.566 137.767 199.105 137.641C199.666 137.52 200.241 137.3 200.852 137.115C201.494 136.891 202.176 136.804 202.854 136.86C203.219 136.917 203.569 137.047 203.882 137.242C204.196 137.437 204.467 137.693 204.679 137.996C205.078 138.597 205.516 139.171 205.992 139.714C206.523 140.22 207.184 140.567 207.902 140.715C208.644 140.879 209.417 140.819 210.125 140.545C210.847 140.225 211.495 139.758 212.027 139.174C213.149 138.038 214.115 136.611 215.662 135.993C217.146 135.542 218.744 135.645 220.157 136.285C221.381 136.84 222.632 137.332 223.906 137.761C225.026 138.073 226.187 138.216 227.349 138.187C229.044 138.145 230.711 137.746 232.241 137.016C233.384 136.469 233.917 136.057 233.938 136.093Z" fill="#455A64"/>
<path d="M179.168 304.604L177.812 287.813L179.964 287.323L181.945 305.335L179.168 304.604Z" fill="#263238"/>
<path d="M183.421 282.306L172.497 287.764L174.036 290.845L184.96 285.386L183.421 282.306Z" fill="#263238"/>
<path d="M172.75 283.489L173.247 283.553L173.084 283.269L172.75 283.489Z" fill="#FFBE9D"/>
<path d="M171.252 252.114L155.809 255.912L173.084 283.269L182.229 277.17L171.252 252.114Z" fill="#FAE2C0"/>
<path d="M213.483 194.654L184.543 201.228L185.31 205.012C185.31 205.012 156.946 211.346 147.339 213.866C145.652 214.249 144.112 215.115 142.908 216.358C141.704 217.601 140.888 219.168 140.559 220.867C139.742 224.339 140.062 229.649 141.979 232.674L157.407 261.28L172.75 253.47C172.75 253.47 162.356 231.872 163.044 231.872C163.733 231.872 206.028 229.032 210.614 225.61C215.201 222.187 217.544 218.197 217.771 210.65C217.92 205.581 214.143 197.387 214.143 197.387L213.483 194.654Z" fill="#263238"/>
<path d="M146.125 240.37C146.125 240.37 146.21 240.491 146.352 240.74L146.97 241.833L149.278 246.029L157.542 261.188L157.336 261.124L172.672 253.314L172.587 253.548C170.755 249.473 168.788 245.106 166.765 240.598C165.43 237.637 164.131 234.74 162.881 231.957L162.775 231.723H163.03C175.966 230.608 187.369 229.806 195.484 228.883C199.546 228.435 202.79 227.981 204.998 227.534C205.846 227.379 206.683 227.173 207.505 226.916C207.789 226.831 207.987 226.731 208.129 226.682L208.342 226.611C208.08 226.754 207.807 226.878 207.526 226.98C206.71 227.273 205.875 227.51 205.027 227.69C202.819 228.18 199.574 228.67 195.513 229.153C187.397 230.147 176.002 230.999 163.059 232.127L163.215 231.872C164.464 234.655 165.764 237.552 167.099 240.513L172.913 253.47L172.984 253.619L172.835 253.697L157.478 261.507L157.343 261.578L157.272 261.443L149.1 246.114L146.856 241.854C146.615 241.379 146.423 241.01 146.281 240.74C146.139 240.47 146.125 240.37 146.125 240.37Z" fill="#455A64"/>
<path d="M158.259 227.378C159.394 227.668 160.44 228.232 161.307 229.021C162.173 229.809 162.833 230.798 163.229 231.9C162.576 230.971 161.846 230.097 161.049 229.287C160.175 228.572 159.242 227.934 158.259 227.378Z" fill="#455A64"/>
<path d="M205.431 227.257C205.352 227.129 205.292 226.99 205.254 226.845C205.133 226.518 204.998 226.135 204.828 225.652L203.408 221.35V221.286V221.229C204.459 219.369 205.687 217.175 207.015 214.839L209.961 209.677L210.032 209.556L210.16 209.606L215.343 211.58L216.799 212.162C216.975 212.22 217.145 212.298 217.303 212.396C217.116 212.378 216.934 212.33 216.763 212.255L215.272 211.765L210.054 209.926L210.252 209.848C209.379 211.41 208.392 213.17 207.341 215.031L203.692 221.421V221.3L204.991 225.645L205.332 226.859C205.382 226.987 205.416 227.121 205.431 227.257Z" fill="#455A64"/>
<path d="M194.867 206.674C193.362 206.036 191.793 205.56 190.188 205.254C188.561 205.084 186.922 205.084 185.296 205.254C185.746 205.055 186.226 204.932 186.716 204.892C189.065 204.555 191.462 204.905 193.617 205.9C194.078 206.078 194.502 206.34 194.867 206.674Z" fill="#455A64"/>
<path d="M170.435 279.91L170.762 280.62C170.762 280.62 161.042 290.93 161.965 293.23L185.601 282.147L181.59 274.436C180.233 276.097 178.535 277.446 176.61 278.391C174.685 279.335 172.579 279.854 170.435 279.91Z" fill="#455A64"/>
<path d="M180.375 278.093C180.636 278.055 180.9 278.114 181.119 278.26C181.338 278.405 181.496 278.626 181.561 278.881C181.608 279.139 181.554 279.406 181.41 279.625C181.266 279.844 181.043 280 180.787 280.06C180.512 280.098 180.233 280.034 180.003 279.879C179.772 279.725 179.607 279.491 179.538 279.222C179.488 278.696 179.957 278.05 180.475 278.079" fill="white"/>
<path d="M185.601 282.168L184.635 280.315L162.334 291.618C162.334 291.618 161.497 292.57 161.965 293.251L185.601 282.168Z" fill="#263238"/>
<path d="M170.705 280.72C170.762 280.833 171.366 280.62 172.125 280.72C172.885 280.819 173.396 281.174 173.481 281.075C173.567 280.975 173.077 280.365 172.182 280.28C171.288 280.194 170.634 280.628 170.705 280.72Z" fill="#263238"/>
<path d="M168.71 282.914C168.71 283.034 169.328 282.999 169.946 283.304C170.563 283.609 170.925 284.071 171.039 284.014C171.153 283.957 170.918 283.269 170.137 282.907C169.356 282.544 168.66 282.8 168.71 282.914Z" fill="#263238"/>
<path d="M168.696 286.535C168.81 286.535 168.696 285.86 168.107 285.37C167.517 284.88 166.857 284.873 166.85 284.994C166.843 285.115 167.34 285.299 167.823 285.704C168.306 286.109 168.575 286.577 168.696 286.535Z" fill="#263238"/>
<path d="M217.537 215.542C214.518 214.889 211.656 213.654 209.109 211.907C209.166 211.814 210.969 212.794 213.291 213.795C215.613 214.796 217.565 215.435 217.537 215.542Z" fill="#455A64"/>
<path d="M124.74 188.803L125.407 187.454C125.748 186.769 126.301 186.211 126.985 185.866C127.668 185.52 128.444 185.405 129.199 185.537L138.138 187.135V192.985L136.632 193.439C135.867 193.673 135.066 193.767 134.268 193.716L129.007 193.411C129.007 193.411 129.98 190.024 128.212 189.236C127.118 188.768 125.915 188.618 124.74 188.803Z" fill="#FAE2C0"/>
<path d="M172.977 177.145L164.081 166.353L172.587 156.562L177.422 152.721L180.035 158.706L172.977 177.145Z" fill="#7F01D8"/>
<path d="M220 191.994C220 190.907 219.072 190.357 218.25 189.888C216.131 188.667 214.192 187.133 212.495 185.332C209.096 175.187 202.598 158.924 200.898 155.023C198.47 149.471 191.579 144.164 190.901 144L177.176 152.567L176.855 156.683L172.992 161.737C172.486 162.402 172.16 163.195 172.045 164.035C171.931 164.875 172.033 165.731 172.342 166.516C174.841 172.887 181.111 188.92 181.239 190.133C181.346 191.123 181.882 193.006 182.246 195.031C181.961 196.847 181.296 198.648 181.675 200.487C181.785 201.029 182.012 201.538 182.339 201.976C183.496 203.464 184.881 203.077 186.531 202.4L189.051 201.656C190.844 200.443 192.829 199.571 194.914 199.08C196.352 198.754 197.851 198.91 199.199 199.527C199.377 199.609 199.556 199.683 199.741 199.75C200.67 200.091 201.656 200.23 202.638 200.16C203.62 200.089 204.579 199.811 205.454 199.341C207.489 198.232 208.967 196.133 211.095 195.254L213.123 194.778C215.137 194.562 217.265 194.823 219.007 193.654C219.288 193.481 219.525 193.239 219.698 192.95C219.871 192.662 219.974 192.334 220 191.994Z" fill="#7F01D8"/>
<path d="M189.811 201.37C188.96 201.249 188.165 200.873 187.531 200.291C186.898 199.709 186.455 198.949 186.261 198.111C186.72 198.784 187.23 199.421 187.788 200.014C188.425 200.52 189.101 200.974 189.811 201.37Z" fill="#263238"/>
<path d="M189.229 197.941C189.336 197.941 189.428 198.552 189.627 199.276C189.826 200 190.039 200.582 189.939 200.632C189.84 200.681 189.471 200.149 189.265 199.375C189.059 198.601 189.13 197.941 189.229 197.941Z" fill="#263238"/>
<path d="M207.895 190.436C207.155 190.73 206.442 191.089 205.765 191.508C205.155 191.899 204.473 192.453 203.699 193.042C202.872 193.725 201.951 194.287 200.966 194.71C200.047 195.049 199.068 195.195 198.091 195.137C197.113 195.08 196.158 194.821 195.286 194.377C194.767 194.104 194.289 193.76 193.866 193.354C193.7 193.214 193.561 193.046 193.454 192.857C194.066 193.352 194.727 193.783 195.428 194.142C196.277 194.539 197.198 194.763 198.135 194.802C199.072 194.841 200.007 194.694 200.887 194.37C201.843 193.955 202.74 193.418 203.557 192.772C204.331 192.197 205.041 191.665 205.687 191.281C206.192 190.982 206.731 190.744 207.292 190.571C207.483 190.491 207.688 190.445 207.895 190.436Z" fill="#263238"/>
<path d="M206.198 187.887C204.112 188.143 201.996 187.806 200.092 186.915C200.128 186.815 201.455 187.206 203.131 187.468C204.807 187.731 206.198 187.781 206.198 187.887Z" fill="#263238"/>
<path d="M174.404 165.941C174.353 165.367 174.382 164.789 174.49 164.223C174.603 163.165 174.837 161.71 175.157 160.119C175.476 158.529 175.867 157.102 176.165 156.086C176.285 155.68 176.437 155.283 176.62 154.901C176.733 154.624 176.925 154.503 176.932 154.553C176.804 154.475 176.158 157.031 175.512 160.197C175.192 161.781 174.923 163.215 174.738 164.258C174.675 164.828 174.563 165.391 174.404 165.941Z" fill="#263238"/>
<path d="M137.165 203.06L136.32 201.42C135.946 200.731 135.769 199.952 135.809 199.169C135.849 198.386 136.105 197.63 136.547 196.982C137.655 195.349 139.117 193.432 139.771 193.432C140.892 193.432 146.033 195.193 146.033 195.193L151.4 196.088L153.261 201.463C147.985 204.501 149.938 199.332 148.085 198.772L144.627 199.702L144.187 203.962L137.165 203.06Z" fill="#FAE2C0"/>
<g opacity="0.3">
<path d="M183.819 180.092L192.481 182.101C192.481 182.101 196.13 166.566 194.49 163.456L189.897 178.579L184.927 177.869L183.819 180.092Z" fill="black"/>
</g>
<path d="M172.963 174.362L168.121 185.864L149.739 196.102L151.656 201.938C151.656 201.938 174.674 194.994 176.826 192.58C178.977 190.166 185.693 176.3 185.693 176.3L172.963 174.362Z" fill="#FAE2C0"/>
<path d="M196.67 158.941C194.938 152.146 186.616 149.597 181.164 153.971C180.182 154.726 179.362 155.67 178.75 156.747C176.108 161.752 170.94 173.787 170.94 173.787L189.804 179.751C189.804 179.751 194.37 167.269 195.598 164.024C195.839 163.428 196.904 159.892 196.67 158.941Z" fill="#7F01D8"/>
<path d="M196.67 158.941C196.714 159.071 196.733 159.208 196.727 159.345C196.724 159.741 196.686 160.135 196.613 160.524C196.345 162.003 195.946 163.454 195.42 164.862L189.968 179.843L189.918 179.992L189.769 179.942L170.918 174.007L170.719 173.943L170.805 173.758C173.091 168.455 175.313 163.435 177.5 158.926C177.777 158.373 178.047 157.812 178.331 157.272C178.593 156.721 178.909 156.198 179.275 155.71C179.991 154.788 180.858 153.994 181.838 153.36C182.059 153.191 182.297 153.046 182.548 152.927L183.258 152.544L184.018 152.26C184.261 152.158 184.513 152.079 184.77 152.025L185.53 151.848C185.779 151.798 186.034 151.784 186.283 151.755C186.768 151.699 187.257 151.685 187.745 151.713C189.474 151.781 191.155 152.305 192.616 153.232C193.716 153.928 194.655 154.851 195.371 155.937L195.775 156.569C195.875 156.782 195.967 156.981 196.059 157.166L196.294 157.677C196.35 157.84 196.393 157.996 196.436 158.124C196.507 158.38 196.571 158.579 196.613 158.735C196.642 158.802 196.658 158.874 196.663 158.948C196.628 158.884 196.599 158.818 196.578 158.749L196.365 158.153L196.208 157.712C196.13 157.563 196.045 157.393 195.96 157.215L195.669 156.633L195.25 156.015C194.53 154.961 193.593 154.072 192.502 153.41C191.066 152.527 189.423 152.038 187.738 151.99C187.264 151.97 186.789 151.989 186.318 152.047C186.077 152.047 185.828 152.096 185.608 152.146L184.898 152.323C184.655 152.379 184.417 152.458 184.188 152.558L183.478 152.835L182.768 153.211C182.518 153.329 182.28 153.472 182.058 153.637C181.112 154.258 180.275 155.03 179.58 155.923C179.231 156.402 178.929 156.913 178.679 157.45C178.395 157.982 178.132 158.543 177.855 159.097C175.725 163.598 173.474 168.632 171.188 173.922L171.074 173.673L189.861 179.63L189.655 179.729C191.948 173.588 193.873 168.433 195.229 164.819C195.77 163.437 196.197 162.012 196.507 160.559C196.586 160.175 196.641 159.786 196.67 159.395C196.67 159.076 196.67 158.941 196.67 158.941Z" fill="#263238"/>
<path d="M144.13 203.948C144.13 203.997 143.711 204.139 143.029 204.054C142.866 204.054 142.689 204.054 142.49 204.054C142.24 204.062 141.994 203.998 141.78 203.869C141.667 203.788 141.574 203.681 141.509 203.558C141.444 203.435 141.408 203.299 141.404 203.159C141.394 202.901 141.406 202.642 141.439 202.385C141.567 201.356 141.744 200.447 141.865 199.787C141.898 199.423 141.987 199.066 142.128 198.729C142.256 198.729 142.085 200.412 141.808 202.421C141.751 202.918 141.688 203.429 141.972 203.614C142.256 203.798 142.682 203.763 143.037 203.841C143.739 203.94 144.13 203.898 144.13 203.948Z" fill="#EB996E"/>
<path d="M146.942 203.976C148.483 203.976 149.732 202.727 149.732 201.186C149.732 199.645 148.483 198.395 146.942 198.395C145.401 198.395 144.151 199.645 144.151 201.186C144.151 202.727 145.401 203.976 146.942 203.976Z" fill="#263238"/>
<path d="M141.517 203.188C141.517 203.188 141.517 203.252 141.517 203.38H141.468C141.249 203.346 141.026 203.346 140.807 203.38C140.421 203.472 140.025 203.515 139.629 203.507C139.36 203.482 139.11 203.364 138.919 203.174C138.724 202.94 138.617 202.647 138.613 202.343C138.578 201.782 138.535 201.2 138.493 200.589C138.397 199.879 138.43 199.157 138.592 198.459C138.78 197.901 139.108 197.4 139.543 197.004C139.904 196.621 140.333 196.308 140.807 196.081C140.468 196.467 140.107 196.834 139.728 197.181C139.356 197.57 139.079 198.039 138.919 198.551C138.791 199.207 138.772 199.878 138.862 200.54C139.025 201.704 138.684 203.159 139.693 203.188C140.062 203.214 140.434 203.2 140.8 203.145C141.041 203.121 141.284 203.153 141.51 203.238H141.453C141.46 203.23 141.496 203.181 141.517 203.188Z" fill="#EB996E"/>
<path d="M150.151 196.159C150.151 196.159 150.243 196.081 150.428 195.96L151.258 195.463L154.354 193.674C156.967 192.183 160.595 190.124 164.613 187.916L167.865 186.112L167.787 186.198C169.207 182.832 170.499 179.879 171.429 177.678C171.884 176.669 172.246 175.839 172.53 175.207C172.651 174.905 172.796 174.613 172.963 174.333C172.884 174.65 172.777 174.959 172.644 175.256L171.642 177.77L168.092 186.29V186.347H168.036L164.784 188.157C160.765 190.394 157.116 192.417 154.468 193.837L151.322 195.513L150.456 195.953C150.364 196.035 150.261 196.104 150.151 196.159Z" fill="#EB996E"/>
</svg>
