<svg width="86" height="96" viewBox="0 0 86 96" fill="none" xmlns="http://www.w3.org/2000/svg">
<path d="M8.37367 86.7872L0.638428 0.0245361H85.6384L77.8955 86.7741L43.0869 96.4243L8.37367 86.7872Z" fill="#1572B6"/>
<path d="M42.5007 87.711L70.2056 80.0299L76.7235 7.0116H42.5007V87.711Z" fill="#33A9DC"/>
<path d="M42.5007 37.9735H56.3702L57.3281 27.2406H42.5007V16.7593H68.7832L68.5316 19.5716L65.955 48.4549H42.5007V37.9735Z" fill="white"/>
<path d="M42.5628 65.1942L42.5166 65.2078L30.844 62.0561L30.0976 53.6967H19.5776L21.0455 70.1541L42.5151 76.1128L42.5628 76.0991V65.1942Z" fill="#EBEBEB"/>
<path d="M55.479 48.0115L54.2165 62.0477L42.5265 65.2033V76.1082L64.0135 70.1533L64.1711 68.3823L65.9944 48.0115H55.479Z" fill="white"/>
<path d="M42.5364 16.7593V27.2406H17.2194L17.0095 24.8854L16.5321 19.5716L16.2812 16.7593H42.5364ZM42.5008 37.9751V48.4564H30.9752L30.7653 46.1011L30.2871 40.7873L30.0371 37.9751H42.5008Z" fill="#EBEBEB"/>
</svg>
