<svg width="97" height="97" viewBox="0 0 97 97" fill="none" xmlns="http://www.w3.org/2000/svg">
<g clip-path="url(#clip0_336_896)">
<path d="M73.8828 0H22.6172C10.1261 0 0 10.1261 0 22.6172V73.8828C0 86.3739 10.1261 96.5 22.6172 96.5H73.8828C86.3739 96.5 96.5 86.3739 96.5 73.8828V22.6172C96.5 10.1261 86.3739 0 73.8828 0Z" fill="#F4F2ED"/>
<mask id="mask0_336_896" style="mask-type:luminance" maskUnits="userSpaceOnUse" x="22" y="10" width="52" height="76">
<path d="M22.9941 10.5547H73.2646V85.9453H22.9941V10.5547Z" fill="white"/>
</mask>
<g mask="url(#mask0_336_896)">
<path d="M35.5644 85.9453C42.5003 85.9453 48.1294 80.3163 48.1294 73.3804V60.815H35.5644C28.6285 60.815 22.9991 66.4444 22.9991 73.3804C22.9991 80.3163 28.6285 85.9453 35.5644 85.9453Z" fill="#0ACF83"/>
<path d="M22.9991 48.25C22.9991 41.314 28.6285 35.685 35.5644 35.685H48.1294V60.815H35.5644C28.6285 60.815 22.9991 55.1859 22.9991 48.25Z" fill="#A259FF"/>
<path d="M22.9991 23.1197C22.9991 16.1837 28.6285 10.5547 35.5644 10.5547H48.1294V35.685H35.5644C28.6285 35.685 22.9991 30.0556 22.9991 23.1197Z" fill="#F24E1E"/>
<path d="M48.1294 10.5547H60.6944C67.6303 10.5547 73.2597 16.1837 73.2597 23.1197C73.2597 30.0556 67.6303 35.685 60.6944 35.685H48.1294V10.5547Z" fill="#FF7262"/>
<path d="M73.2597 48.25C73.2597 55.1859 67.6303 60.815 60.6944 60.815C53.7584 60.815 48.1294 55.1859 48.1294 48.25C48.1294 41.314 53.7584 35.685 60.6944 35.685C67.6303 35.685 73.2597 41.314 73.2597 48.25Z" fill="#1ABCFE"/>
</g>
</g>
<defs>
<clipPath id="clip0_336_896">
<rect width="96.5" height="96.5" fill="white"/>
</clipPath>
</defs>
</svg>
