<svg width="97" height="97" viewBox="0 0 97 97" fill="none" xmlns="http://www.w3.org/2000/svg">
<g clip-path="url(#clip0_337_918)">
<path d="M94.6786 43.9497L52.5442 1.82145C51.9673 1.24427 51.2824 0.786407 50.5285 0.474023C49.7746 0.161639 48.9665 0.000854492 48.1505 0.000854492C47.3344 0.000854492 46.5264 0.161639 45.7725 0.474023C45.0186 0.786407 44.3336 1.24427 43.7567 1.82145L35.0114 10.5668L46.1089 21.6643C47.4177 21.2174 48.8258 21.1475 50.1724 21.4625C51.519 21.7775 52.75 22.4648 53.7248 23.4458C54.6995 24.4269 55.3789 25.6622 55.6852 27.0109C55.9916 28.3595 55.9126 29.7671 55.4573 31.073L66.1507 41.7725C67.7328 41.2154 69.4574 41.2137 71.0406 41.7677C72.6237 42.3216 73.9711 43.3982 74.8607 44.82C75.7504 46.2419 76.1293 47.9244 75.9351 49.5904C75.7409 51.2564 74.9852 52.8066 73.7923 53.9857C72.5848 55.2007 70.9929 55.9587 69.2885 56.1303C67.5842 56.3019 65.8731 55.8764 64.4476 54.9266C63.0221 53.9767 61.9706 52.5614 61.4727 50.9224C60.9748 49.2833 61.0614 47.5223 61.7178 45.94L51.7481 35.9644V62.2184C53.2635 62.9685 54.476 64.2153 55.1836 65.7511C55.8912 67.2868 56.051 69.0186 55.6365 70.6579C55.222 72.2972 54.2582 73.7449 52.9057 74.7598C51.5532 75.7746 49.8937 76.2952 48.2039 76.2349C46.5141 76.1745 44.896 75.5368 43.6193 74.4281C42.3427 73.3194 41.4846 71.8066 41.1881 70.1419C40.8916 68.4772 41.1746 66.7612 41.9899 65.2799C42.8052 63.7985 44.1036 62.6414 45.6686 62.0013V35.506C44.7657 35.136 43.9449 34.5909 43.2536 33.9022C42.5623 33.2135 42.0141 32.3948 41.6407 31.4933C41.2673 30.5917 41.0761 29.6252 41.078 28.6494C41.0799 27.6736 41.2749 26.7078 41.6518 25.8077L30.7171 14.867L1.82746 43.7567C1.25028 44.3336 0.792419 45.0186 0.480035 45.7725C0.167651 46.5264 0.00686646 47.3344 0.00686646 48.1505C0.00686646 48.9666 0.167651 49.7746 0.480035 50.5285C0.792419 51.2824 1.25028 51.9674 1.82746 52.5443L43.9618 94.6786C44.5387 95.2558 45.2236 95.7136 45.9775 96.026C46.7314 96.3384 47.5395 96.4992 48.3555 96.4992C49.1716 96.4992 49.9797 96.3384 50.7335 96.026C51.4874 95.7136 52.1724 95.2558 52.7493 94.6786L94.6846 52.7433C95.2618 52.1664 95.7196 51.4814 96.032 50.7275C96.3444 49.9736 96.5052 49.1656 96.5052 48.3495C96.5052 47.5335 96.3444 46.7254 96.032 45.9715C95.7196 45.2176 95.2618 44.5327 94.6846 43.9558" fill="black"/>
</g>
<defs>
<clipPath id="clip0_337_918">
<rect width="96.5" height="96.5" fill="white"/>
</clipPath>
</defs>
</svg>
