<svg width="99" height="97" viewBox="0 0 99 97" fill="none" xmlns="http://www.w3.org/2000/svg">
<path d="M49.4717 0C22.1386 0 1.83933e-05 22.1386 1.83933e-05 49.4716C-0.00893914 59.8572 3.25405 69.9817 9.32569 78.4076C15.3973 86.8334 23.969 93.1325 33.8238 96.4103C36.2974 96.8407 37.2274 95.3566 37.2274 94.0555C37.2274 92.883 37.1631 88.9896 37.1631 84.8438C24.7358 87.1344 21.5202 81.8162 20.5307 79.0309C19.9717 77.6062 17.5624 73.218 15.4599 72.0406C13.7284 71.1155 11.2548 68.8249 15.3956 68.7656C19.294 68.7013 22.0743 72.3523 23.0043 73.8364C27.4568 81.3165 34.5658 79.214 37.4105 77.9178C37.8458 74.7022 39.142 72.5403 40.5668 71.3035C29.5593 70.0667 18.0572 65.7973 18.0572 46.8744C18.0572 41.4919 19.9717 37.0444 23.128 33.5813C22.6333 32.3446 20.9018 27.2737 23.6227 20.4714C23.6227 20.4714 27.7635 19.1703 37.2274 25.5373C41.2552 24.4224 45.4161 23.8615 49.5953 23.8701C53.8004 23.8701 58.0055 24.4241 61.9632 25.5373C71.4272 19.1059 75.5679 20.4714 75.5679 20.4714C78.2889 27.2737 76.5574 32.3446 76.0627 33.5813C79.214 37.0444 81.1335 41.4325 81.1335 46.8744C81.1335 65.8616 69.572 70.0667 58.5645 71.3035C60.3554 72.847 61.9039 75.8153 61.9039 80.4557C61.9039 87.0701 61.8396 92.3883 61.8396 94.0604C61.8396 95.3566 62.7696 96.9001 65.2432 96.4054C75.0609 93.0863 83.5915 86.7737 89.6355 78.3551C95.6795 69.9364 98.9329 59.8352 98.9383 49.4716C98.9383 22.1386 76.7998 0 49.4667 0" fill="black"/>
</svg>
