<svg width="140" height="158" viewBox="0 0 140 158" fill="none" xmlns="http://www.w3.org/2000/svg">
<path d="M13.1988 142.006L0.559387 0.25H139.441L126.784 141.983L69.9156 157.75L13.1988 142.006Z" fill="#E44F26"/>
<path d="M70 145.701L115.956 132.961L126.767 11.8431H70V145.701Z" fill="#F1662A"/>
<path d="M70 64.4144H46.9937L45.4075 46.6112H70V29.2244H26.4062L26.8225 33.8931L31.0919 81.8012H70V64.4144ZM70 109.566L69.9213 109.589L50.56 104.363L49.3225 90.4975H31.8681L34.3038 117.79L69.9213 127.679L70 127.656V109.566Z" fill="#EBEBEB"/>
<path d="M69.9381 64.4144V81.8012H91.3469L89.3331 104.352L69.9381 109.583V127.673L105.584 117.79L105.842 114.854L109.926 69.0831L110.354 64.4144H69.9381ZM69.9381 29.2244V46.6112H111.934L112.283 42.7075L113.076 33.8931L113.492 29.2244H69.9381Z" fill="white"/>
</svg>
