<svg width="24" height="24" viewBox="0 0 24 24" fill="none" xmlns="http://www.w3.org/2000/svg">
<path d="M12 4.62C14.4 4.62 14.688 4.629 15.6366 4.6722C16.2075 4.67894 16.7729 4.78387 17.3082 4.9824C17.699 5.12666 18.0525 5.3567 18.3426 5.6556C18.6415 5.94574 18.8715 6.29921 19.0158 6.69C19.2143 7.22528 19.3193 7.79073 19.326 8.3616C19.3692 9.312 19.38 9.6 19.38 12C19.38 14.4 19.371 14.688 19.3278 15.6366C19.3211 16.2075 19.2161 16.7729 19.0176 17.3082C18.8678 17.6962 18.6385 18.0485 18.3444 18.3426C18.0503 18.6367 17.698 18.866 17.31 19.0158C16.7747 19.2143 16.2093 19.3193 15.6384 19.326C14.6898 19.3692 14.4048 19.3782 12.0018 19.3782C9.5988 19.3782 9.3138 19.3692 8.3652 19.326C7.79433 19.3193 7.22888 19.2143 6.6936 19.0158C6.30281 18.8715 5.94934 18.6415 5.6592 18.3426C5.3603 18.0525 5.13026 17.699 4.986 17.3082C4.78747 16.7729 4.68254 16.2075 4.6758 15.6366C4.6308 14.688 4.62 14.403 4.62 12C4.62 9.597 4.629 9.312 4.6722 8.3634C4.67894 7.79253 4.78387 7.22708 4.9824 6.6918C5.12718 6.30084 5.35785 5.94736 5.6574 5.6574C5.94754 5.3585 6.30101 5.12846 6.6918 4.9842C7.22708 4.78567 7.79253 4.68074 8.3634 4.674C9.312 4.6308 9.6 4.62 12 4.62ZM12 3C9.5556 3 9.249 3.0102 8.2896 3.054C7.54273 3.06982 6.80392 3.21183 6.1044 3.474C5.50426 3.69987 4.96047 4.05366 4.5108 4.5108C4.05301 4.96029 3.69859 5.50409 3.4722 6.1044C3.21003 6.80392 3.06802 7.54273 3.0522 8.2896C3.0102 9.249 3 9.5556 3 12C3 14.4444 3.0102 14.751 3.054 15.7104C3.06982 16.4573 3.21183 17.1961 3.474 17.8956C3.70039 18.4959 4.05481 19.0397 4.5126 19.4892C4.96209 19.947 5.50589 20.3014 6.1062 20.5278C6.80572 20.79 7.54453 20.932 8.2914 20.9478C9.2514 20.9916 9.5574 21.0018 12.0018 21.0018C14.4462 21.0018 14.7528 20.9916 15.7122 20.9478C16.4591 20.932 17.1979 20.79 17.8974 20.5278C18.495 20.2962 19.0378 19.9424 19.491 19.4892C19.9442 19.036 20.298 18.4932 20.5296 17.8956C20.7918 17.1961 20.9338 16.4573 20.9496 15.7104C20.9934 14.7504 21.0036 14.4444 21.0036 12C21.0036 9.5556 20.9934 9.249 20.9496 8.2896C20.9338 7.54273 20.7918 6.80392 20.5296 6.1044C20.3032 5.50409 19.9488 4.96029 19.491 4.5108C19.0415 4.05301 18.4977 3.69859 17.8974 3.4722C17.1979 3.21003 16.4591 3.06802 15.7122 3.0522C14.751 3.0102 14.4444 3 12 3Z" fill="white"/>
<path d="M11.9999 7.38C11.0861 7.38 10.1929 7.65096 9.43315 8.15862C8.6734 8.66627 8.08124 9.38781 7.73156 10.232C7.38188 11.0762 7.29039 12.0051 7.46866 12.9013C7.64692 13.7975 8.08693 14.6207 8.73305 15.2668C9.37917 15.913 10.2024 16.353 11.0986 16.5312C11.9948 16.7095 12.9237 16.618 13.7679 16.2683C14.6121 15.9187 15.3336 15.3265 15.8413 14.5667C16.3489 13.807 16.6199 12.9138 16.6199 12C16.6199 10.7747 16.1331 9.59959 15.2667 8.73317C14.4003 7.86675 13.2252 7.38 11.9999 7.38ZM11.9999 15C11.4065 15 10.8265 14.8241 10.3332 14.4944C9.83983 14.1648 9.45531 13.6962 9.22825 13.1481C9.00118 12.5999 8.94177 11.9967 9.05753 11.4147C9.17328 10.8328 9.45901 10.2982 9.87856 9.87868C10.2981 9.45913 10.8327 9.1734 11.4146 9.05765C11.9966 8.94189 12.5998 9.0013 13.1479 9.22837C13.6961 9.45543 14.1646 9.83995 14.4943 10.3333C14.8239 10.8266 14.9999 11.4067 14.9999 12C14.9999 12.7957 14.6838 13.5587 14.1212 14.1213C13.5586 14.6839 12.7955 15 11.9999 15Z" fill="white"/>
<path d="M16.8041 8.27581C17.4006 8.27581 17.8841 7.79228 17.8841 7.19581C17.8841 6.59935 17.4006 6.11581 16.8041 6.11581C16.2077 6.11581 15.7241 6.59935 15.7241 7.19581C15.7241 7.79228 16.2077 8.27581 16.8041 8.27581Z" fill="white"/>
</svg>
