<svg width="97" height="97" viewBox="0 0 97 97" fill="none" xmlns="http://www.w3.org/2000/svg">
<path d="M73.8828 0H22.6172C10.1261 0 0 10.1261 0 22.6172V73.8828C0 86.3739 10.1261 96.5 22.6172 96.5H73.8828C86.3739 96.5 96.5 86.3739 96.5 73.8828V22.6172C96.5 10.1261 86.3739 0 73.8828 0Z" fill="#F4F2ED"/>
<path fill-rule="evenodd" clip-rule="evenodd" d="M72.3867 59.4346C72.6853 59.263 72.9335 59.016 73.1065 58.7183C73.2795 58.4206 73.3712 58.0826 73.3724 57.7383L73.4078 46.3765C73.4088 46.0322 73.5005 45.6941 73.6736 45.3964C73.8464 45.0986 74.0946 44.8516 74.3932 44.6802L80.5522 41.1425C81.0032 40.8837 81.5384 40.8144 82.0405 40.9496C82.5426 41.0849 82.9705 41.4137 83.2305 41.864C83.4027 42.1622 83.4933 42.5005 83.4932 42.8448V63.5004C83.4935 63.8458 83.4025 64.1852 83.2294 64.4841C83.0563 64.7831 82.8072 65.031 82.5075 65.2027L59.2642 78.5532C58.9673 78.7236 58.631 78.8134 58.2887 78.8137C57.9464 78.814 57.6099 78.7249 57.3127 78.5551L39.0716 68.1222C38.7711 67.9505 38.5214 67.7024 38.3476 67.4032C38.1738 67.1039 38.0822 66.764 38.0821 66.418V56.0028C38.0821 55.9911 38.096 55.9832 38.1077 55.9888C38.11 55.9904 38.1128 55.9912 38.1156 55.9913C38.1184 55.9914 38.1212 55.9907 38.1236 55.9893C38.126 55.9879 38.128 55.9858 38.1293 55.9833C38.1307 55.9809 38.1313 55.9781 38.1311 55.9753V55.9636C38.1311 55.9556 38.1352 55.9477 38.1431 55.944L53.1662 47.3132C53.1798 47.3053 53.1738 47.2838 53.1583 47.2838C53.1541 47.2837 53.1502 47.282 53.1472 47.2791C53.1443 47.2762 53.1426 47.2722 53.1425 47.268L53.1719 37.0567C53.1736 36.7114 53.084 36.3717 52.9122 36.0721C52.7404 35.7725 52.4926 35.5236 52.1937 35.3506C51.895 35.1775 51.5559 35.0861 51.2107 35.0858C50.8654 35.0855 50.5262 35.1762 50.2271 35.3488L39.0618 41.7826C38.7638 41.9541 38.4259 42.0444 38.0821 42.0444C37.7382 42.0444 37.4004 41.9541 37.1024 41.7826L25.9016 35.3329C25.6032 35.161 25.2649 35.0705 24.9205 35.0707C24.5761 35.0709 24.2379 35.1617 23.9397 35.3339C23.6415 35.5062 23.3939 35.7539 23.2217 36.0521C23.0495 36.3503 22.9588 36.6886 22.9587 37.033V55.4882C22.9591 55.8322 22.869 56.1703 22.6976 56.4685C22.5261 56.7667 22.2793 57.0147 21.9819 57.1875C21.6844 57.3603 21.3468 57.4518 21.0028 57.453C20.6588 57.4543 20.3205 57.365 20.0219 57.1943L13.8059 53.6408C13.5049 53.4688 13.2548 53.2201 13.081 52.9201C12.9072 52.6202 12.8159 52.2795 12.8164 51.9328L12.8714 19.6758C12.8722 19.3319 12.9632 18.9942 13.1355 18.6966C13.3077 18.399 13.5551 18.1518 13.8529 17.9798C14.1507 17.8079 14.4885 17.7172 14.8324 17.7168C15.1763 17.7164 15.5142 17.8063 15.8124 17.9776L37.1043 30.2071C37.4018 30.3779 37.7389 30.4678 38.0821 30.4678C38.4252 30.4678 38.7623 30.3779 39.0599 30.2071L60.346 17.9776C60.7972 17.7183 61.3329 17.6488 61.8353 17.7844C62.3376 17.92 62.7656 18.2495 63.0251 18.7006C63.1969 18.9988 63.287 19.3373 63.287 19.6818V51.9464C63.2871 52.2916 63.1962 52.6307 63.0235 52.9295C62.8508 53.2284 62.6023 53.4764 62.3032 53.6487L51.1556 60.0686C50.8564 60.2416 50.6081 60.4903 50.4356 60.7897C50.263 61.0891 50.1724 61.4287 50.1728 61.7743C50.1733 62.12 50.2652 62.4594 50.4392 62.7581C50.6132 63.0568 50.863 63.3041 51.1635 63.4751L57.3127 66.9755C57.6098 67.145 57.946 67.2338 58.288 67.2332C58.63 67.2325 58.9659 67.1424 59.2623 66.9717L72.3867 59.4346ZM73.6766 30.4917C73.677 30.8389 73.7694 31.1798 73.9444 31.4796C74.1194 31.7794 74.3708 32.0275 74.6729 32.1986C74.9751 32.3695 75.3172 32.4574 75.6644 32.4531C76.0116 32.4487 76.3514 32.3525 76.6493 32.1741L82.5392 28.6401C82.8298 28.4659 83.0705 28.2193 83.2376 27.9245C83.4048 27.6297 83.4929 27.2967 83.4932 26.9578V19.7561C83.4925 19.4965 83.4404 19.2397 83.3399 19.0004C83.2393 18.7611 83.0924 18.5441 82.9076 18.3619C82.7227 18.1797 82.5037 18.0359 82.263 17.9388C82.0223 17.8418 81.7647 17.7933 81.5052 17.7963C81.1581 17.8005 80.8183 17.8967 80.5206 18.0753L74.6307 21.6092C74.3397 21.7832 74.0988 22.0297 73.9316 22.3247C73.7644 22.6196 73.6765 22.9529 73.6766 23.2919V30.4932V30.4917Z" fill="#007FFF"/>
</svg>
