<svg width="109" height="97" viewBox="0 0 109 97" fill="none" xmlns="http://www.w3.org/2000/svg">
<path d="M54.2262 57.8343C59.5741 57.8343 63.9094 53.4989 63.9094 48.151C63.9094 42.8031 59.5741 38.4678 54.2262 38.4678C48.8782 38.4678 44.5429 42.8031 44.5429 48.151C44.5429 53.4989 48.8782 57.8343 54.2262 57.8343Z" fill="#00D8FF"/>
<path d="M54.2262 70.3528C42.5875 70.6333 30.978 69.0645 19.8313 65.7048C14.6822 64.0725 9.87975 61.5013 5.66663 58.1209C4.05839 56.9666 2.71915 55.4778 1.74097 53.7568C0.762783 52.0358 0.168852 50.1234 0 48.151C0 41.7485 7.03391 35.4737 18.8165 31.368C30.2617 27.733 42.2188 25.9699 54.2262 26.1468C66.0733 25.983 77.8705 27.7143 89.1711 31.2751C94.1292 32.8578 98.7685 35.3046 102.875 38.5026C104.453 39.6053 105.771 41.0407 106.734 42.7077C107.698 44.3748 108.285 46.2328 108.452 48.151C108.452 54.8053 100.59 61.5487 87.9239 65.7397C76.9931 68.9908 65.6285 70.5466 54.2262 70.3528ZM54.2262 30.7793C42.7386 30.6291 31.3002 32.3052 20.3387 35.7448C9.49345 39.5291 4.63246 44.7038 4.63246 48.1394C4.63246 51.7338 9.85754 57.385 21.3302 61.3086C31.9936 64.508 43.0966 65.9971 54.2262 65.7203C65.1349 65.9154 76.0093 64.4393 86.4714 61.3435C98.3818 57.3966 103.804 51.7377 103.804 48.151C103.608 46.9204 103.159 45.7437 102.486 44.6951C101.813 43.6466 100.93 42.7488 99.8923 42.0583C96.2192 39.2202 92.0747 37.0515 87.6488 35.6519C76.838 32.2604 65.5553 30.6155 54.2262 30.7793Z" fill="#00D8FF"/>
<path d="M32.2258 96.4472C30.419 96.4885 28.6334 96.0501 27.0511 95.1767C21.5046 91.9774 19.5834 82.7512 21.9112 70.4922C24.4808 58.7613 28.9278 47.5222 35.0805 37.209C40.8558 26.8647 48.2477 17.5101 56.9762 9.49939C60.8242 5.99447 65.2616 3.19751 70.0834 1.23765C71.8285 0.422476 73.7311 0 75.6571 0C77.5832 0 79.4858 0.422476 81.2308 1.23765C86.9981 4.56093 88.9077 14.74 86.2157 27.8046C83.5702 38.9 79.2386 49.524 73.3719 59.3061C67.8002 69.5286 60.6411 78.8018 52.1617 86.7794C48.1752 90.4234 43.5488 93.298 38.5161 95.2581C36.5018 96.0077 34.3748 96.4098 32.2258 96.4472ZM39.0932 39.5097C33.2247 49.3855 28.9626 60.131 26.4662 71.3443C24.3243 82.635 26.381 89.4249 29.3712 91.1524C32.4699 92.9457 39.9918 91.2453 49.125 83.2663C57.2208 75.6245 64.0541 66.7478 69.3708 56.9667C74.9907 47.6146 79.1458 37.4574 81.6917 26.8479C84.2249 14.5502 82.0364 7.02048 78.9301 5.23102C77.7656 4.78561 76.5216 4.58629 75.2763 4.64562C74.031 4.70495 72.8115 5.02165 71.6947 5.57574C67.4021 7.34761 63.4555 9.86243 60.0361 13.0047C51.6974 20.6785 44.6367 29.6339 39.1203 39.5329L39.0932 39.5097Z" fill="#00D8FF"/>
<path d="M76.2149 96.4976C70.9666 96.4976 64.3006 93.3215 57.3597 87.3527C48.4792 79.2682 40.9625 69.8027 35.0998 59.3217C29.023 49.1511 24.6112 38.0744 22.0313 26.511C20.9151 21.4231 20.7079 16.1778 21.4193 11.0178C21.5866 9.10421 22.1705 7.2504 23.13 5.58635C24.0894 3.9223 25.4013 2.48829 26.9737 1.38488C32.7333 -1.95003 42.5056 1.47784 52.4793 10.3322C60.7705 18.1647 67.8113 27.2225 73.3564 37.1896C79.4299 47.1226 83.8881 57.9568 86.5643 69.2877C87.7307 74.562 87.9106 80.0066 87.095 85.3464C86.9017 87.3158 86.2844 89.22 85.2855 90.9283C84.2866 92.6366 82.9298 94.1084 81.3083 95.2426C79.7512 96.1036 77.9937 96.5366 76.2149 96.4976ZM39.1087 56.9899C44.7333 67.0061 51.9135 76.065 60.3809 83.828C69.0919 91.3229 76.0019 92.9341 78.9727 91.1873C82.0713 89.3862 84.3566 82.0347 82.0016 70.1398C79.4223 59.3212 75.1461 48.9792 69.332 39.4981C64.0405 29.9587 57.3199 21.2853 49.4039 13.7794C40.0151 5.44409 32.4001 3.58104 29.2976 5.37825C28.3312 6.16454 27.538 7.14244 26.968 8.25035C26.3981 9.35826 26.0637 10.5722 25.986 11.8157C25.3706 16.4175 25.5712 21.0918 26.5786 25.624C29.0609 36.6821 33.2921 47.2732 39.1126 56.9977L39.1087 56.9899Z" fill="#00D8FF"/>
</svg>
