<svg width="98" height="97" viewBox="0 0 98 97" fill="none" xmlns="http://www.w3.org/2000/svg">
<path d="M93.6342 10.2257L73.6474 0.603128C72.5189 0.0578789 71.2485 -0.122279 70.013 0.087692C68.7774 0.297663 67.6379 0.887333 66.7528 1.77475L1.32577 61.4234C0.531948 62.1437 0.056769 63.1499 0.00476424 64.2205C-0.0472406 65.2912 0.328188 66.3386 1.04846 67.1325C1.13397 67.2249 1.22294 67.3139 1.31537 67.3994L6.65699 72.2523C7.35498 72.8875 8.25343 73.2582 9.1963 73.3C10.1392 73.3418 11.0669 73.052 11.8184 72.481L90.6255 12.7214C91.2207 12.2697 91.9302 11.9932 92.6741 11.9228C93.4181 11.8525 94.1668 11.9912 94.8362 12.3234C95.5055 12.6555 96.0689 13.1679 96.4628 13.8029C96.8567 14.4379 97.0656 15.1702 97.0659 15.9174V15.6851C97.065 14.5446 96.7426 13.4273 96.1356 12.4617C95.5286 11.496 94.6617 10.721 93.6342 10.2257Z" fill="#0065A9"/>
<path d="M93.6342 86.2769L73.6474 95.9029C72.5183 96.4456 71.2486 96.6244 70.0136 96.4145C68.7786 96.2046 67.6392 95.6165 66.7528 94.7313L1.32577 35.0792C0.531948 34.3588 0.056769 33.3527 0.00476424 32.2821C-0.0472406 31.2114 0.328188 30.164 1.04846 29.3701C1.13397 29.2777 1.22294 29.1887 1.31537 29.1032L6.65699 24.2503C7.35569 23.6124 8.2562 23.24 9.2014 23.1982C10.1466 23.1564 11.0765 23.4478 11.8288 24.0216L90.6255 83.7811C91.2207 84.2328 91.9302 84.5094 92.6741 84.5797C93.4181 84.6501 94.1668 84.5113 94.8362 84.1792C95.5055 83.847 96.0689 83.3346 96.4628 82.6997C96.8567 82.0647 97.0656 81.3324 97.0659 80.5852V80.8348C97.0618 81.9724 96.7378 83.086 96.131 84.0483C95.5242 85.0106 94.659 85.7828 93.6342 86.2769Z" fill="#007ACC"/>
<path d="M73.6474 95.9029C72.5183 96.4456 71.2486 96.6244 70.0136 96.4145C68.7786 96.2046 67.6392 95.6165 66.7528 94.7313C67.2506 95.2226 67.8823 95.5561 68.5688 95.6899C69.2552 95.8237 69.9659 95.7519 70.6118 95.4836C71.2577 95.2153 71.81 94.7623 72.1995 94.1814C72.589 93.6005 72.7985 92.9176 72.8016 92.2182V4.28427C72.8022 3.58161 72.5942 2.89458 72.204 2.31022C71.8138 1.72585 71.2589 1.27045 70.6097 1.0017C69.9604 0.732945 69.246 0.662935 68.557 0.800535C67.8679 0.938135 67.2352 1.27715 66.739 1.77465C67.6236 0.88666 68.7629 0.29634 69.9985 0.085745C71.2341 -0.12485 72.5047 0.054743 73.6335 0.59956L93.6169 10.2082C94.6476 10.7011 95.5181 11.475 96.1283 12.4409C96.7384 13.4067 97.0635 14.5253 97.0659 15.6677V80.8348C97.0654 81.9763 96.7427 83.0946 96.1351 84.0609C95.5274 85.0273 94.6594 85.8026 93.6308 86.2977L73.6474 95.9029Z" fill="#1F9CF0"/>
</svg>
